<svg viewBox="0 0 46 40" xmlns="http://www.w3.org/2000/svg"><g fill="none" fill-rule="evenodd"><path d="M26.817 2.038c-1.149.638-3.677 2.632-3.677 2.632s-2.529-1.994-3.677-2.632C14.73-.593 8.268-1.01 4.013 2.786-.102 6.458-.557 12.383 1.44 17.268c.385.94.835 1.849 1.334 2.733h40.732c.498-.884.948-1.793 1.334-2.733 1.997-4.885 1.541-10.81-2.575-14.482-4.253-3.797-10.716-3.38-15.448-.748Zm-8.205 34.84C19.72 37.77 23.12 40 23.12 40l.02-.002.022.002s3.399-2.23 4.506-3.123c2.332-1.883 4.529-3.924 6.695-5.995 3.374-3.225 6.815-6.757 9.144-10.881H2.774c2.328 4.124 5.77 7.656 9.143 10.88 2.167 2.072 4.363 4.113 6.695 5.996Z" fill="#1078EB"/><path d="M18.612 36.877C19.72 37.77 23.12 40 23.12 40l.02-.002.022.002s3.399-2.23 4.506-3.123c2.332-1.883 4.529-3.924 6.695-5.995 3.374-3.225 6.815-6.757 9.144-10.881H2.774c2.328 4.124 5.77 7.656 9.143 10.88 2.167 2.072 4.363 4.113 6.695 5.996Z" fill="#FFD600"/><path d="M26.817 2.039c-1.149.638-3.677 2.631-3.677 2.631v35.328l.02.002s3.4-2.23 4.506-3.123c2.333-1.883 4.53-3.924 6.697-5.995 4.095-3.915 8.296-8.282 10.476-13.613 1.998-4.885 1.542-10.811-2.573-14.483-4.254-3.796-10.717-3.379-15.45-.747Z" fill-opacity=".145" fill="#181818"/></g></svg>