<svg width="81" height="80" fill="none" xmlns="http://www.w3.org/2000/svg"><path d="M74.25 13h-27A2.25 2.25 0 0045 15.25v49.5A2.25 2.25 0 0047.25 67h27a2.25 2.25 0 002.25-2.25v-49.5A2.25 2.25 0 0074.25 13z" fill="#fff" stroke="#211087" stroke-linecap="round" stroke-linejoin="round"/><path d="M50.589 21.679c.042 0 .083-.001.125-.004l-.076.212-.241.67h2.548l-.241-.67-.076-.211.114.003a1.625 1.625 0 001.69-1.62 1.626 1.626 0 00-.39-1.084l-.017-.02-.02-.018-1.912-1.811-.344-.326-.343.326-1.922 1.82c-.3.278-.486.66-.517 1.07l-.001.019v.019a1.625 1.625 0 001.623 1.625zm0 0h-.003l.005-.5m-.002.5h.002v-.5m0 0a1.125 1.125 0 01-1.125-1.125m1.125 1.125c.107 0 .213-.012.315-.037l-1.44-1.088m0 0c.021-.284.15-.55.36-.743l-.36.743zm17.9 40.924l.034.05.045.042 1.969 1.789.341.31.337-.315 1.935-1.812h0l.002-.002c.301-.285.481-.675.504-1.089v-.027a1.625 1.625 0 00-1.624-1.625h-.002a1.83 1.83 0 00-.131.005l.076-.218.233-.665H68.55l.233.665.076.218a1.86 1.86 0 00-.131-.005v0h-.002a1.625 1.625 0 00-1.624 1.591c-.044.382.05.768.264 1.088z" fill="#D6E2FF" stroke="#211087"/><path d="M70.391 35.489l-9.64-9-9.642 9a5.378 5.378 0 00-1.755 3.746 5.625 5.625 0 005.85 5.445 6.424 6.424 0 003.836-1.316h.765l-1.98 5.625h5.85l-1.98-5.625h.765a6.402 6.402 0 003.836 1.26 5.626 5.626 0 005.85-5.445 5.377 5.377 0 00-1.755-3.69zM33.75 13h-27a2.25 2.25 0 00-2.25 2.25v49.5A2.25 2.25 0 006.75 67h27A2.25 2.25 0 0036 64.75v-49.5A2.25 2.25 0 0033.75 13z" fill="#D6E2FF" stroke="#211087" stroke-linecap="round" stroke-linejoin="round"/><path d="M13.525 18.955l.017.02c.258.301.397.687.39 1.084a1.625 1.625 0 01-1.621 1.62m1.214-2.724l-1.533 2.188c.103.025.208.037.315.036v.5h.004m1.214-2.724l-.02-.018-1.912-1.811-.344-.326-.343.326-1.922 1.82c-.3.278-.486.66-.517 1.07l-.001.019v.018a1.625 1.625 0 001.691 1.626c.038 0 .076-.001.113-.004m3.255-2.72l-3.255 2.72m2.04.004c-.042 0-.084 0-.126-.003l.076.21.241.67H9.953l.241-.67.076-.21m2.04.003l-2.04-.004m16.596 39.303l.034.05.045.042 1.969 1.789.341.31.337-.315 1.935-1.812h0l.002-.002c.301-.285.481-.675.504-1.089v-.027a1.625 1.625 0 00-1.624-1.625h-.002a1.83 1.83 0 00-.131.005l.076-.218.233-.665H28.05l.233.665.076.218a1.86 1.86 0 00-.131-.005v0h-.002a1.625 1.625 0 00-1.624 1.591c-.044.382.05.768.264 1.088z" fill="#fff" stroke="#211087"/><path d="M29.892 35.489l-9.642-9-9.641 9a5.376 5.376 0 00-1.755 3.746 5.625 5.625 0 005.85 5.445 6.424 6.424 0 003.836-1.316h.765l-1.98 5.625h5.85l-1.98-5.625h.765a6.402 6.402 0 003.837 1.26 5.626 5.626 0 005.85-5.445 5.377 5.377 0 00-1.755-3.69z" fill="#fff" stroke="#211087" stroke-linecap="round" stroke-linejoin="round"/></svg>