<svg width="80" height="80" fill="none" xmlns="http://www.w3.org/2000/svg"><path d="M56.697 34.092c-.244.983 0 1.843.73 2.58l.732.861 3.656 4.425v4.425H46.581a2.434 2.434 0 01-1.722-.722 2.476 2.476 0 01-.715-1.736V12.458c0-1.352 1.096-2.458 2.437-2.458h16.21c1.34 0 2.437 1.106 2.437 2.458v24.46l-4.144-4.178c-1.097-1.107-2.681-1.107-3.778 0a4.56 4.56 0 00-.61 1.352z" fill="#D6E2FF" stroke="#211087"/><path d="M50.349 13.95l-.008-.008-.01-.008-1.34-1.23-.338-.31-.338.31-1.34 1.23-.009.008-.008.008a1.2 1.2 0 00-.328.844c0 .282.091.605.328.843.187.19.502.355.843.388l-.205.62h2.237l-.205-.62a1.24 1.24 0 00.715-.306c.249-.223.395-.545.395-.925 0-.453-.249-.703-.38-.834l-.009-.01zm10.735 11.169l-6.46-6.146-6.459 6.146c-.73.614-1.218 1.598-1.218 2.458 0 2.09 1.706 3.688 3.778 3.688h.122c.975 0 1.828-.246 2.56-.86h.487l-1.341 3.81h3.9l-1.34-3.81h.73c.732.49 1.585.86 2.56.86 2.072.122 3.778-1.475 3.9-3.565v-.123c0-.86-.487-1.72-1.219-2.458z" fill="#fff" stroke="#211087"/><path d="M79 69V55.11H54.625v9.957L79 69z" fill="#D6E2FF" stroke="#211087"/><path d="M74.125 64.083c1.219 0 2.072-.983 2.072-2.09a2.062 2.062 0 00-2.072-2.089c-1.219 0-2.072.983-2.072 2.09 0 1.229.853 2.212 2.072 2.09zm0 0c0 .123 0 .123 0 0v0z" fill="#D6E2FF" stroke="#211087" stroke-linecap="round" stroke-linejoin="round"/><path d="M35.856 12.458v31.467c0 1.352-1.096 2.458-2.437 2.458H18.185v-4.425l3.656-4.425.731-.86c.61-.615.975-1.598.731-2.581-.122-.492-.244-.86-.61-1.23-1.096-1.106-2.68-1.106-3.777 0l-4.144 4.18V12.458c0-1.352 1.097-2.458 2.437-2.458h16.21c1.34 0 2.437 1.106 2.437 2.458z" fill="#fff" stroke="#211087"/><path d="M33.47 13.827l-.01-.008-.008-.008-1.34-1.23-.339-.31-.337.31-1.341 1.23-.009.008-.008.008a1.2 1.2 0 00-.328.844c0 .282.092.605.328.844.187.188.502.354.843.387l-.205.62h2.237l-.205-.62c.253-.023.509-.12.715-.306.249-.223.395-.545.395-.925 0-.453-.248-.703-.38-.834l-.009-.01zm-1.636 12.275l-6.46-6.146-6.458 6.146c-.732.615-1.22 1.598-1.22 2.459 0 2.089 1.707 3.687 3.779 3.687h.122c.975 0 1.828-.246 2.56-.86h.487l-1.341 3.81h3.9l-1.34-3.81h.73c.732.491 1.585.86 2.56.86 2.072.123 3.778-1.475 3.9-3.565v-.122c0-.861-.487-1.721-1.219-2.459zM1 69V55.11h24.375v9.957L1 69z" fill="#D6E2FF" stroke="#211087"/><path d="M5.997 64.083c-1.22 0-2.072-.983-2.072-2.09 0-1.229.975-2.089 2.072-2.089 1.218 0 2.072.983 2.072 2.09 0 1.229-.975 2.09-2.072 2.09z" fill="#D6E2FF" stroke="#211087" stroke-linecap="round" stroke-linejoin="round"/><path d="M75.588 38.148V55.11H64.375c-.609 0-1.218-.123-1.828-.245-3.656-.984-5.85-4.794-4.875-8.482h4.022v-4.425l-3.656-4.425-.731-.86c-.61-.615-.975-1.598-.732-2.581.122-.492.366-.86.61-1.23 1.097-1.106 2.681-1.106 3.778 0l4.144 4.18V23.644l8.165 8.358c1.585 1.598 2.438 3.81 2.316 6.146zm-57.404 3.81v4.425h4.022c.122.615.244 1.23.244 1.844 0 3.81-3.169 6.883-6.947 6.883H4.413V38.148c-.122-2.213.73-4.425 2.193-6.146l8.044-8.235v13.275l4.144-4.18c1.096-1.106 2.68-1.106 3.778 0 .244.37.487.738.61 1.23.243.983 0 1.843-.732 2.58l-.731.861-3.535 4.425z" fill="#D6E2FF" stroke="#211087"/></svg>