<svg width="80" height="80" fill="none" xmlns="http://www.w3.org/2000/svg"><path d="M32.804 70.076H5.886c-3.052 0-5.34-2.538-5.34-5.407V37.304c0-3.09 2.506-5.407 5.34-5.407h26.918c3.052 0 5.34 2.538 5.34 5.407v27.255c0 3.2-2.289 5.517-5.34 5.517Z" fill="#D6E2FF"/><path fill-rule="evenodd" clip-rule="evenodd" d="M5.885 32.449c-2.548 0-4.795 2.084-4.795 4.855v27.365c0 2.58 2.059 4.856 4.795 4.856h26.919c2.743 0 4.795-2.063 4.795-4.966V37.304c0-2.58-2.06-4.855-4.795-4.855H5.885ZM0 37.304c0-3.41 2.765-5.959 5.885-5.959h26.919c3.367 0 5.885 2.8 5.885 5.959v27.255c0 3.497-2.525 6.069-5.886 6.069H5.886c-3.367 0-5.885-2.8-5.885-5.959V37.304H0Z" fill="#211087"/><path fill-rule="evenodd" clip-rule="evenodd" d="M14.93 51.207c0-2.401 1.989-4.413 4.36-4.413 2.371 0 4.36 2.012 4.36 4.413 0 2.402-1.989 4.414-4.36 4.414-2.371 0-4.36-2.012-4.36-4.414Zm4.36-3.31c-1.77 0-3.27 1.519-3.27 3.31 0 1.792 1.5 3.31 3.27 3.31s3.269-1.518 3.269-3.31c0-1.791-1.5-3.31-3.27-3.31ZM5.122 61.33c.016-2.388 1.997-4.385 4.36-4.385 2.37 0 4.359 2.013 4.359 4.414 0 2.4-1.99 4.414-4.36 4.414-2.544 0-4.598-1.978-4.359-4.443Zm4.36-3.28c-1.77 0-3.27 1.518-3.27 3.31v.03l-.003.028c-.178 1.715 1.249 3.252 3.272 3.252 1.77 0 3.27-1.518 3.27-3.31s-1.5-3.31-3.27-3.31Z" fill="#211087"/><path d="M46.208 31.897h26.919c3.052 0 5.34 2.538 5.34 5.407v27.255c0 3.09-2.507 5.407-5.34 5.407h-26.92c-3.051 0-5.34-2.538-5.34-5.407V37.304c0-3.09 2.507-5.407 5.34-5.407h.001Z" fill="#D6E2FF"/><path fill-rule="evenodd" clip-rule="evenodd" d="M46.208 32.449c-2.548 0-4.795 2.084-4.795 4.855v27.255c0 2.579 2.06 4.855 4.795 4.855h26.918c2.547 0 4.795-2.085 4.795-4.855V37.304c0-2.58-2.06-4.855-4.795-4.855H46.208Zm-5.885 4.855c0-3.41 2.765-5.959 5.885-5.959h26.918c3.367 0 5.885 2.8 5.885 5.959v27.255c0 3.409-2.765 5.959-5.885 5.959H46.208c-3.368 0-5.885-2.8-5.885-5.959V37.304Z" fill="#211087"/><path d="M49.914 57.055c-2.07 0-3.814 1.766-3.814 3.862 0 2.097 1.744 3.862 3.814 3.862 2.071 0 3.814-1.765 3.814-3.862 0-2.096-1.743-3.862-3.814-3.862Z" fill="#fff"/><path fill-rule="evenodd" clip-rule="evenodd" d="M45.555 60.917c0-2.4 1.988-4.414 4.36-4.414 2.371 0 4.359 2.013 4.359 4.414s-1.988 4.414-4.36 4.414c-2.37 0-4.358-2.013-4.358-4.414h-.001Zm4.36-3.31c-1.77 0-3.27 1.518-3.27 3.31s1.5 3.31 3.27 3.31 3.268-1.518 3.268-3.31-1.499-3.31-3.269-3.31Z" fill="#211087"/><path d="M69.748 36.752c-2.07 0-3.813 1.765-3.813 3.861 0 2.097 1.743 3.863 3.814 3.863 2.07 0 3.815-1.766 3.815-3.862 0-2.097-1.744-3.862-3.815-3.862Z" fill="#fff"/><path fill-rule="evenodd" clip-rule="evenodd" d="M65.39 40.614c0-2.402 1.987-4.414 4.358-4.414 2.373 0 4.36 2.012 4.36 4.413 0 2.402-1.987 4.414-4.36 4.414-2.37 0-4.358-2.012-4.358-4.413Zm4.358-3.31c-1.769 0-3.269 1.518-3.269 3.31 0 1.791 1.5 3.31 3.27 3.31s3.268-1.519 3.268-3.31c0-1.792-1.499-3.31-3.269-3.31ZM5.123 41.055c0-2.401 1.987-4.414 4.359-4.414s4.36 2.013 4.36 4.414-1.988 4.415-4.36 4.415c-2.61 0-4.359-2.034-4.359-4.414v-.001Zm4.359-3.31c-1.77 0-3.27 1.518-3.27 3.31 0 1.813 1.302 3.31 3.27 3.31 1.77 0 3.269-1.518 3.269-3.31s-1.5-3.31-3.27-3.31ZM24.958 61.36c0-2.402 1.987-4.415 4.359-4.415s4.36 2.013 4.36 4.414-1.988 4.414-4.36 4.414c-2.37 0-4.359-2.013-4.359-4.414v.001Zm4.359-3.311c-1.77 0-3.27 1.518-3.27 3.31s1.5 3.31 3.27 3.31 3.269-1.518 3.269-3.31-1.5-3.31-3.27-3.31Z" fill="#211087"/><path d="M52.966 49.993H26.047c-3.052 0-5.34-2.538-5.34-5.407V17.33c0-3.09 2.507-5.407 5.34-5.407h26.919c3.052 0 5.34 2.538 5.34 5.407v27.255c-.109 3.09-2.398 5.407-5.34 5.407v.001Z" fill="#fff"/><path fill-rule="evenodd" clip-rule="evenodd" d="M26.047 12.476c-2.548 0-4.796 2.084-4.796 4.855v27.255c0 2.579 2.06 4.855 4.796 4.855h26.918c2.63 0 4.691-2.059 4.795-4.865V17.33c0-2.58-2.058-4.855-4.795-4.855H26.047Zm-5.885 4.855c0-3.41 2.765-5.96 5.885-5.96h26.918c3.368 0 5.885 2.8 5.885 5.96v27.275c-.118 3.368-2.63 5.938-5.885 5.938H26.047c-3.367 0-5.885-2.8-5.885-5.958V17.33Z" fill="#211087"/><path fill-rule="evenodd" clip-rule="evenodd" d="M45.01 20.943c.016-2.388 1.996-4.385 4.359-4.385 2.372 0 4.36 2.013 4.36 4.414s-1.988 4.414-4.36 4.414c-2.425 0-4.598-1.968-4.36-4.443Zm4.359-3.281c-1.77 0-3.27 1.518-3.27 3.31v.03l-.002.028c-.178 1.705 1.347 3.252 3.272 3.252 1.77 0 3.269-1.518 3.269-3.31s-1.5-3.31-3.27-3.31ZM24.958 41.055c0-2.401 1.987-4.414 4.359-4.414s4.359 2.013 4.359 4.414-1.987 4.414-4.36 4.414c-2.37 0-4.358-2.013-4.358-4.414Zm4.359-3.31c-1.77 0-3.27 1.518-3.27 3.31s1.5 3.31 3.27 3.31 3.269-1.518 3.269-3.31-1.5-3.31-3.27-3.31Zm-4.359-16.773c0-2.401 1.987-4.414 4.359-4.414s4.359 2.013 4.359 4.414-1.987 4.414-4.36 4.414c-2.37 0-4.358-2.012-4.358-4.414Zm4.359-3.31c-1.77 0-3.27 1.518-3.27 3.31s1.5 3.31 3.27 3.31 3.269-1.518 3.269-3.31-1.5-3.31-3.27-3.31Zm15.692 23.364c.017-2.388 1.997-4.385 4.36-4.385 2.372 0 4.36 2.013 4.36 4.414s-1.988 4.414-4.36 4.414c-2.425 0-4.598-1.968-4.36-4.443Zm4.36-3.281c-1.77 0-3.27 1.518-3.27 3.31v.03l-.002.028c-.178 1.705 1.347 3.252 3.272 3.252 1.77 0 3.269-1.518 3.269-3.31s-1.5-3.31-3.27-3.31Z" fill="#211087"/></svg>