<svg width="81" height="80" fill="none" xmlns="http://www.w3.org/2000/svg"><g clip-path="url(#clip0)" stroke="#211087"><path d="M80 54.158c0 9.219-7.473 16.692-16.692 16.692-9.219 0-16.692-7.473-16.692-16.692 0-9.219 7.473-16.692 16.692-16.692C72.528 37.466 80 44.94 80 54.158z" fill="#D6E2FF"/><path d="M63.308 61.608a7.45 7.45 0 100-14.9 7.45 7.45 0 000 14.9v0z" fill="#D6E2FF" stroke-width=".84"/><path d="M1.115 40.178v-.003C1.115 23.259 14.875 9.5 31.79 9.5c16.917 0 30.674 13.532 30.674 30.675 0 16.833-13.624 30.54-30.424 30.674h-.25c-17.035 0-30.788-13.534-30.675-30.67z" fill="#D6E2FF"/><path d="M31.79 54.846c8.022 0 14.67-6.648 14.67-14.67 0-8.024-6.648-14.671-14.67-14.671-8.023 0-14.67 6.647-14.67 14.67-.116 8.023 6.647 14.67 14.67 14.67v0z" fill="#fff" stroke-width=".917"/><path d="M31.79 64.744c4.039 0 7.7 1.645 10.528 4.229-3.206 1.104-6.774 1.877-10.528 1.877h0c-3.718 0-7.4-.498-10.604-1.845 2.73-2.684 6.415-4.261 10.604-4.261zM7.106 40.175c0 4.039-1.645 7.7-4.229 10.53C1.773 47.497 1 43.928 1 40.174v0c0-3.574.687-7.25 1.879-10.568 2.664 2.726 4.227 6.397 4.227 10.568zm35.259-28.803c-2.728 2.668-6.402 4.234-10.576 4.234-4.038 0-7.7-1.645-10.529-4.229C24.467 10.273 28.035 9.5 31.79 9.5l10.575 1.872zm0 0A30.497 30.497 0 0031.79 9.5l10.575 1.872zm18.223 18.274c1.104 3.206 1.876 6.776 1.876 10.53 0 3.823-.498 7.505-1.838 10.608-2.69-2.73-4.268-6.418-4.268-10.61 0-4.037 1.646-7.699 4.23-10.528z" fill="#fff"/><path d="M23.996 37.883c.114-1.376.917-2.866 3.896-2.866 2.407 0 3.553 1.146 3.553 2.866 0 1.146-.687 1.833-1.375 1.948.688.344 1.834.688 1.834 2.407 0 1.605-1.032 3.095-4.012 3.095-2.98 0-3.896-1.834-3.896-2.98h2.865c.114.573.344 1.031 1.146 1.031.688 0 1.031-.458 1.031-1.375 0-.688-.343-1.376-1.375-1.376h-.688V38.8h.688c.917 0 1.146-.344 1.146-1.032 0-.573-.344-.917-.917-.917-.573 0-.916.344-.916 1.032h-2.98v0zM35.8 42.582c.115.458.344.687.918.687.916 0 1.031-1.146 1.146-2.406-.459.458-1.146.687-1.834.687-1.949 0-3.324-1.375-3.324-3.094 0-2.063 1.49-3.439 3.897-3.439 2.98 0 4.011 2.063 4.011 4.7 0 2.865-.917 5.386-4.126 5.386-2.636 0-3.553-1.49-3.667-2.865h2.98v.344h0zm0-4.24c0 .916.344 1.375 1.032 1.375.688 0 1.032-.459 1.032-1.376 0-.688-.344-1.375-1.032-1.375-.573.114-1.03.458-1.03 1.375l-.002.001z" fill="#D6E2FF" stroke-linejoin="round"/></g><defs><clipPath id="clip0"><path fill="#fff" transform="translate(.5)" d="M0 0h80v80H0z"/></clipPath></defs></svg>