<svg width="80" height="80" fill="none" xmlns="http://www.w3.org/2000/svg"><path d="M70.47 75.503H9.618S5.963 54.005 39.313 54.005c33.35.09 31.157 21.498 31.157 21.498z" fill="#D6E2FF"/><path fill-rule="evenodd" clip-rule="evenodd" d="M10.061 75.007a11.85 11.85 0 01-.035-.457 16.175 16.175 0 01.04-2.362c.174-1.962.744-4.571 2.322-7.178 3.136-5.178 10.362-10.508 26.925-10.508 16.56.045 24.167 5.375 27.67 10.563a17.743 17.743 0 012.814 7.169c.154.977.197 1.789.202 2.354.002.16 0 .3-.003.419H10.06zm60.41.496l.497.05v-.006l.002-.015a3.83 3.83 0 00.016-.244c.009-.166.016-.406.013-.709a17.189 17.189 0 00-.213-2.498 18.73 18.73 0 00-2.973-7.57c-3.739-5.538-11.71-10.957-28.498-11.002h-.002c-16.786 0-24.408 5.418-27.782 10.99-1.676 2.767-2.278 5.532-2.46 7.602a17.163 17.163 0 00-.044 2.508 12.279 12.279 0 00.095.956l.002.014v.006c.001 0 .001.001.494-.082l-.493.082.07.415h61.727l.046-.447-.498-.05z" fill="#211087"/><path fill-rule="evenodd" clip-rule="evenodd" d="M59.872 27.609c-.457-.726-1.37-1.18-2.284-1.18-.64 0-1.188.273-1.645.454v-.181l-.274-3.9c0-.454-24.944-8.8-24.944-8.8l-7.949 12.609c-.64-.181-1.645-.181-2.01-.363-.914 0-1.645.454-2.284 1.18-.731 1.178-.914 2.54-.64 3.9.274 1.18 2.559 5.624 4.569 6.35.64 5.17 3.38 10.431 7.492 13.334v3.447c.183 4.989 4.111 9.252 9.32 9.252 5.208 0 9.32-4.082 9.32-9.252v-3.447c4.11-2.903 7.035-8.164 7.583-13.153 2.01-.726 4.111-4.99 4.386-6.168.274-1.633-.092-2.994-.64-4.082z" fill="#fff"/><path fill-rule="evenodd" clip-rule="evenodd" d="M30.884 13.531l-.16.471.16-.47.28.093.792.266a2005.613 2005.613 0 0111.404 3.871 608.493 608.493 0 018.582 3.006c1.17.424 2.15.79 2.84 1.064.344.136.624.254.82.347.097.045.187.09.259.135.033.02.081.052.127.093a.517.517 0 01.18.364l.238 3.391c.341-.122.745-.23 1.18-.23 1.063 0 2.149.523 2.71 1.413l.012.02.01.022c.586 1.16.981 2.628.686 4.385l-.002.015-.004.015c-.155.666-.78 2.08-1.603 3.404-.417.669-.895 1.335-1.408 1.886-.424.456-.896.86-1.399 1.108-.63 4.947-3.5 10.103-7.546 13.065v3.194c0 5.444-4.336 9.749-9.82 9.749-5.506 0-9.628-4.505-9.82-9.731v-3.212c-4.055-2.971-6.747-8.142-7.452-13.245-.508-.252-.992-.668-1.43-1.138-.53-.566-1.03-1.254-1.469-1.945a19.696 19.696 0 01-1.115-2.009c-.287-.6-.5-1.14-.582-1.489l-.002-.007-.001-.007c-.296-1.467-.102-2.958.704-4.258l.022-.036.027-.03c.697-.791 1.554-1.35 2.661-1.35h.118l.106.053c.024.012.097.036.245.063.138.025.304.046.494.07l.085.01c.225.026.482.057.727.102l7.97-12.643.374.125zM55.442 26.72l-.255-3.637-.013-.006c-.169-.08-.425-.188-.764-.323-.674-.268-1.642-.629-2.81-1.052a618.443 618.443 0 00-8.567-3 1717.436 1717.436 0 00-12.094-4.103l-7.94 12.593-.361-.103c-.258-.073-.598-.114-.969-.158l-.062-.008a9.638 9.638 0 01-.554-.078 2.421 2.421 0 01-.383-.097c-.667.029-1.236.364-1.785.976-.637 1.048-.802 2.262-.555 3.5.058.242.232.697.51 1.28.276.576.64 1.248 1.058 1.905.418.658.882 1.292 1.355 1.8.482.516.936.861 1.328 1.003l.288.104.037.302c.626 5.06 3.31 10.183 7.286 12.99l.21.149v3.694c.179 4.747 3.913 8.765 8.82 8.765 4.931 0 8.82-3.86 8.82-8.756v-3.703l.21-.149c3.986-2.814 6.842-7.943 7.376-12.802l.033-.307.293-.106c.393-.142.836-.478 1.298-.974.456-.49.896-1.1 1.291-1.734.791-1.273 1.35-2.568 1.477-3.09.246-1.491-.082-2.733-.585-3.741-.358-.551-1.091-.927-1.848-.927-.438 0-.816.155-1.23.325l-.229.093-.686.272v-.897z" fill="#211087"/><path d="M40.5 65.525l6.58 3.356c1.644.726 3.654-.272 3.654-2.086v-6.622c0-1.814-2.01-2.993-3.654-2.086l-6.58 3.356c-.73.454-1.37 1.18-1.37 2.087.183.816.64 1.723 1.37 1.995z" fill="#fff"/><path fill-rule="evenodd" clip-rule="evenodd" d="M46.844 57.649c1.97-1.08 4.39.327 4.39 2.524v6.622c0 1.11-.62 1.97-1.47 2.431a3.294 3.294 0 01-2.888.11l-.012-.006-6.568-3.35c-.49-.193-.853-.577-1.11-.985a4.392 4.392 0 01-.544-1.358l-.012-.053v-.054c0-1.154.808-2.012 1.606-2.508l.018-.01 6.59-3.363zm3.39 2.524c0-1.428-1.593-2.379-2.911-1.652l-.008.004-6.566 3.35c-.637.4-1.093.969-1.117 1.602.083.348.22.701.402.991.195.31.416.508.643.592l.027.01 6.591 3.363a2.287 2.287 0 001.988-.078c.568-.308.951-.855.951-1.56v-6.622z" fill="#211087"/><path d="M37.76 61.171l-6.578-3.356c-1.645-.726-3.655.272-3.655 2.086v6.622c0 1.815 2.01 2.994 3.655 2.087l6.578-3.357c.731-.453 1.37-1.179 1.37-2.086.183-.635-.456-1.36-1.37-1.996z" fill="#fff"/><path fill-rule="evenodd" clip-rule="evenodd" d="M28.497 57.47a3.294 3.294 0 012.887-.109l.013.006 6.622 3.378.028.02c.478.332.916.709 1.213 1.11.28.379.485.853.37 1.357-.03 1.121-.822 1.957-1.605 2.442l-.018.011-6.59 3.363c-1.97 1.08-4.39-.327-4.39-2.525v-6.621c0-1.11.62-1.97 1.47-2.432zm.48.871c-.567.31-.95.855-.95 1.56v6.622c0 1.428 1.593 2.38 2.911 1.653l.008-.004 6.566-3.35c.654-.412 1.118-1 1.118-1.655v-.07l.02-.066c.03-.105.013-.284-.197-.568-.201-.273-.53-.57-.953-.866l-6.534-3.334a2.287 2.287 0 00-1.988.078z" fill="#211087"/><path d="M37.303 67.793h3.838c.73 0 1.188-.635 1.188-1.179v-6.077c0-.726-.64-1.18-1.188-1.18h-3.838c-.73 0-1.188.635-1.188 1.18v6.077c-.182.635.457 1.18 1.188 1.18z" fill="#fff"/><path fill-rule="evenodd" clip-rule="evenodd" d="M35.615 60.536c0-.768.633-1.675 1.688-1.675h3.838c.773 0 1.688.628 1.688 1.675v6.078c0 .768-.633 1.676-1.688 1.676h-3.838c-.484 0-.953-.179-1.281-.488-.32-.302-.52-.751-.407-1.25v-6.016zm1.688-.682c-.406 0-.688.362-.688.682v6.148l-.019.066c-.03.107-.006.218.115.332a.88.88 0 00.592.215h3.838c.406 0 .687-.362.687-.683v-6.078c0-.403-.365-.682-.688-.682h-3.837z" fill="#211087"/><path d="M58.135 9.195c-2.01-4.536-9.411-6.35-13.249-2.903l-.73.726c-2.01-.454-5.483-1.36-9.777.272-8.223 3.356-5.482 11.61-5.482 11.61s3.928 5.625 12.334 5.625c14.62.09 19.188-9.888 16.904-15.33z" fill="#D6E2FF"/><path fill-rule="evenodd" clip-rule="evenodd" d="M52.309 4.266c2.69.614 5.199 2.28 6.284 4.729l.004.009c2.47 5.886-2.526 16.109-17.367 16.017-4.321 0-7.502-1.448-9.603-2.9a15.023 15.023 0 01-2.349-2.001 11.102 11.102 0 01-.736-.86 3.48 3.48 0 01-.04-.054l-.01-.015-.004-.005-.001-.001.41-.284-.475.155v-.003l-.003-.007-.007-.021a7.941 7.941 0 01-.102-.364c-.062-.245-.14-.596-.207-1.027a11.66 11.66 0 01-.044-3.348c.363-2.63 1.829-5.7 6.13-7.455l.011-.005c4.258-1.619 7.744-.823 9.798-.354l.544-.54.01-.008c2.072-1.862 5.065-2.273 7.757-1.658zM28.897 18.901l-.475.155.023.069.041.059.411-.283zm.454-.225a10.13 10.13 0 00.656.764 14.02 14.02 0 002.191 1.865c1.965 1.359 4.95 2.723 9.034 2.723h.003c14.393.09 18.534-9.638 16.44-14.638-.925-2.084-3.12-3.592-5.59-4.156-2.467-.564-5.089-.16-6.854 1.418l-.917.91-.269-.06-.255-.058c-2.03-.463-5.26-1.199-9.226.307-3.917 1.601-5.192 4.335-5.514 6.67a10.675 10.675 0 00.042 3.062 10.259 10.259 0 00.257 1.185l.002.008z" fill="#211087"/><path d="M29.08 18.9s-1.553-4.717 1.188-8.436c-9.32 1.542-7.949 9.343-7.949 16.328 2.285-.907 5.3-3.356 6.853-7.71.091-.182-.091-.182-.091-.182z" fill="#D6E2FF"/><path fill-rule="evenodd" clip-rule="evenodd" d="M31.397 9.774l-.725.983c-1.282 1.74-1.57 3.726-1.526 5.306a11.256 11.256 0 00.355 2.495.57.57 0 01.188.337.65.65 0 01-.054.375c-1.604 4.476-4.718 7.025-7.13 7.983l-.686.272v-.733c0-.788-.018-1.587-.035-2.392l-.006-.241a84.333 84.333 0 01-.028-2.653c.018-1.752.138-3.48.566-5.049.43-1.576 1.173-3.006 2.444-4.142 1.269-1.136 3.026-1.944 5.426-2.34l1.21-.201zM29.08 18.9l-.165.054-.055.018-.162.052.382-.124zm-.424.138l-.051.016.021.065c-1.366 3.666-3.798 5.878-5.812 6.903a160.27 160.27 0 00-.03-1.642l-.006-.242a83.522 83.522 0 01-.027-2.622c.017-1.724.136-3.352.53-4.8.393-1.44 1.054-2.685 2.148-3.663.903-.808 2.126-1.457 3.795-1.869-.911 1.7-1.117 3.485-1.078 4.906.024.857.137 1.592.244 2.114a10.036 10.036 0 00.209.831l.004.013.001.004v.002l.052-.016z" fill="#211087"/><path d="M51.009 22.62c1.553 2.086 3.198 3.447 4.751 4.082.183-2.54 0-4.99-.457-7.076-.914 1.18-2.467 2.268-4.294 2.994z" fill="#D6E2FF"/><path fill-rule="evenodd" clip-rule="evenodd" d="M55.563 18.476l.229 1.045c.467 2.136.653 4.632.467 7.216l-.05.686-.64-.262c-1.664-.68-3.376-2.114-4.963-4.246l-.385-.517.602-.24c1.768-.701 3.238-1.744 4.084-2.834l.656-.848zm-3.767 4.349c1.174 1.47 2.372 2.499 3.507 3.11a25.071 25.071 0 00-.301-5.231c-.846.82-1.957 1.554-3.206 2.121zM39.313 43.344c-3.424 0-6.658-1.414-8.852-3.592l.708-.702c2.009 1.994 4.989 3.301 8.143 3.301 3.245 0 6.134-1.305 8.144-3.301l.707.702c-2.192 2.177-5.333 3.592-8.85 3.592zM36.116 31.28h-7.31v-.993h7.31v.993zm13.522 0h-7.31v-.993h7.31v.993z" fill="#211087"/></svg>