<svg width="80" height="80" fill="none" xmlns="http://www.w3.org/2000/svg"><path d="M56.228 28.374L42.542 14.059c-1.285-1.385-3.402-1.385-4.536-.154L23.565 28.143 5.04 46.459a3.534 3.534 0 00-.15 4.849L18.65 65.7c1.285 1.385 3.402 1.385 4.537.153l18.675-18.47 14.366-14.16a3.53 3.53 0 000-4.85z" fill="#D6E2FF" stroke="#211087" stroke-linecap="round" stroke-linejoin="round"/><path d="M30.142 33.145c1.513 0 2.647-1.154 2.647-2.694 0-1.539-1.134-2.693-2.647-2.693-1.512 0-2.646 1.154-2.646 2.693 0 1.386 1.134 2.54 2.646 2.694zm9.452-9.389c1.512 0 2.646-1.154 2.646-2.693 0-1.54-1.134-2.694-2.646-2.694s-2.646 1.154-2.646 2.694c0 1.462 1.134 2.693 2.646 2.693z" fill="#D6E2FF" stroke="#211087" stroke-linecap="round" stroke-linejoin="round"/><path d="M37.25 65.93L23.489 51.616c-1.286-1.386-1.286-3.464.151-4.618l16.483-16.392 18.297 19.24L41.937 66.16c-1.436 1.155-3.478 1.155-4.687-.23z" fill="#fff" stroke="#211087" stroke-linecap="round" stroke-linejoin="round"/><path d="M61.294 14.444l13.76 14.392c1.286 1.385 1.286 3.463-.15 4.617L58.42 49.77 40.198 30.683 56.606 14.52c1.285-1.54 3.327-1.54 4.688-.077z" fill="#D6E2FF" stroke="#211087" stroke-linecap="round" stroke-linejoin="round"/><path d="M58.42 49.692L40.2 30.605z" fill="#D6E2FF"/><path d="M58.42 49.692L40.2 30.605" stroke="#211087" stroke-linecap="round" stroke-linejoin="round"/><path d="M58.496 43.612c1.512 0 2.646-1.154 2.646-2.694 0-1.539-1.134-2.693-2.646-2.693s-2.646 1.154-2.646 2.694c0 1.462 1.134 2.616 2.646 2.693zm9.98-10.005c1.512 0 2.646-1.154 2.646-2.693 0-1.54-1.134-2.694-2.646-2.694s-2.646 1.154-2.646 2.694c0 1.539 1.134 2.693 2.646 2.693zm-9.677-10.082c1.512 0 2.646-1.154 2.646-2.694 0-1.539-1.134-2.693-2.646-2.693-1.513 0-2.647 1.154-2.647 2.693 0 1.54 1.134 2.694 2.647 2.694zm-9.981 9.852c1.512 0 2.647-1.155 2.647-2.694 0-1.54-1.135-2.694-2.647-2.694-1.512 0-2.646 1.155-2.646 2.694 0 1.385 1.134 2.694 2.646 2.694zm-9.073 18.701c1.512 0 2.646-1.155 2.646-2.694 0-1.54-1.134-2.694-2.646-2.694-1.513 0-2.647 1.155-2.647 2.694 0 1.462 1.134 2.694 2.647 2.694zm9.829.154c1.512 0 2.646-1.155 2.646-2.694 0-1.54-1.134-2.694-2.646-2.694S46.928 48 46.928 49.538c0 1.54 1.134 2.694 2.646 2.694zM29.765 52c1.512 0 2.646-1.154 2.646-2.693 0-1.54-1.134-2.694-2.646-2.694-1.513 0-2.647 1.154-2.647 2.694C27.27 50.692 28.404 52 29.765 52zm-17.845-.385c1.513 0 2.647-1.154 2.647-2.693 0-1.54-1.134-2.694-2.646-2.694s-2.647 1.155-2.647 2.694c0 1.54 1.135 2.694 2.647 2.694zm9.074-9.235c1.512 0 2.646-1.154 2.646-2.693 0-1.54-1.134-2.694-2.646-2.694s-2.646 1.154-2.646 2.694c0 1.385 1.285 2.693 2.646 2.693zm18.902-.307c1.512 0 2.647-1.155 2.647-2.694s-1.135-2.694-2.647-2.694c-1.512 0-2.646 1.155-2.646 2.694 0 1.54 1.21 2.694 2.646 2.694zm-.302 20.164c1.512 0 2.646-1.155 2.646-2.694 0-1.54-1.134-2.694-2.646-2.694s-2.646 1.155-2.646 2.694c0 1.385 1.134 2.694 2.646 2.694zM18.12 58.234c0 1.54 1.135 2.694 2.647 2.694 1.512 0 2.646-1.154 2.646-2.694 0-1.539-1.134-2.693-2.646-2.693-1.437 0-2.646 1.154-2.646 2.693z" fill="#D6E2FF" stroke="#211087" stroke-linecap="round" stroke-linejoin="round"/></svg>