<svg width="81" height="80" fill="none" xmlns="http://www.w3.org/2000/svg"><path d="M15.091 65.459a35.95 35.95 0 0039.203 7.8 35.98 35.98 0 0016.144-13.26 36.018 36.018 0 000-39.999A35.98 35.98 0 0054.294 6.741a35.95 35.95 0 00-39.203 7.8A35.877 35.877 0 004.5 40a35.899 35.899 0 0010.591 25.459v0z" fill="#D6E2FF" stroke="#211087" stroke-linecap="round" stroke-linejoin="round"/><path d="M18.632 61.926a30.962 30.962 0 0033.76 6.704A30.987 30.987 0 0066.29 57.21a31.02 31.02 0 000-34.443 30.987 30.987 0 00-13.898-11.42 30.962 30.962 0 00-33.76 6.704 30.906 30.906 0 00-9.13 21.938 30.925 30.925 0 009.13 21.937v0z" fill="#D6E2FF" stroke="#211087" stroke-linecap="round" stroke-linejoin="round"/><path d="M26.4 54.141a19.984 19.984 0 0021.784 4.34 19.992 19.992 0 008.972-7.367 20.013 20.013 0 000-22.227A19.975 19.975 0 0026.4 25.859a20.055 20.055 0 000 28.282v0z" fill="#fff" stroke="#211087" stroke-linecap="round" stroke-linejoin="round"/><path d="M48.431 41.554l3.134.046v-3.18l-3.132.048a6.34 6.34 0 01-6.36-6.36l.05-3.132H38.94l.047 3.134a6.345 6.345 0 01-6.364 6.364l-3.133-.047-.001 3.181 3.133-.049a6.341 6.341 0 015.88 3.922c.32.773.482 1.602.48 2.438l-.05 3.133 3.181-.001.001-3.181a6.494 6.494 0 016.316-6.316z" fill="#D6E2FF" stroke="#211087" stroke-linecap="round" stroke-linejoin="round"/><path d="M62.43 18.085l3.542-3.544z" fill="#D6E2FF"/><path d="M62.43 18.085l3.542-3.544" stroke="#211087" stroke-linecap="round" stroke-linejoin="round"/><path d="M18.632 61.915l-3.541 3.544z" fill="#D6E2FF"/><path d="M18.632 61.915l-3.541 3.544" stroke="#211087" stroke-linecap="round" stroke-linejoin="round"/><path d="M48.4 10.03l1.272-4.838z" fill="#D6E2FF"/><path d="M48.4 10.03l1.272-4.838" stroke="#211087" stroke-linecap="round" stroke-linejoin="round"/><path d="M32.663 69.97l-1.27 4.838z" fill="#D6E2FF"/><path d="M32.663 69.97l-1.27 4.838" stroke="#211087" stroke-linecap="round" stroke-linejoin="round"/><path d="M32.28 10.12l-1.338-4.815z" fill="#D6E2FF"/><path d="M32.28 10.12l-1.338-4.815" stroke="#211087" stroke-linecap="round" stroke-linejoin="round"/><path d="M48.783 69.88l1.338 4.815z" fill="#D6E2FF"/><path d="M48.783 69.88l1.338 4.815" stroke="#211087" stroke-linecap="round" stroke-linejoin="round"/><path d="M18.373 18.344l-3.575-3.499z" fill="#D6E2FF"/><path d="M18.373 18.344l-3.575-3.499" stroke="#211087" stroke-linecap="round" stroke-linejoin="round"/><path d="M62.69 61.656l3.574 3.499z" fill="#D6E2FF"/><path d="M62.69 61.656l3.574 3.499" stroke="#211087" stroke-linecap="round" stroke-linejoin="round"/><path d="M10.482 32.451l-4.8-1.215z" fill="#D6E2FF"/><path d="M10.482 32.451l-4.8-1.215" stroke="#211087" stroke-linecap="round" stroke-linejoin="round"/><path d="M70.581 47.549l4.8 1.215z" fill="#D6E2FF"/><path d="M70.581 47.549l4.8 1.215" stroke="#211087" stroke-linecap="round" stroke-linejoin="round"/><path d="M10.774 48.606l-4.8 1.395z" fill="#D6E2FF"/><path d="M10.774 48.606l-4.8 1.395" stroke="#211087" stroke-linecap="round" stroke-linejoin="round"/><path d="M70.29 31.394l4.8-1.395z" fill="#D6E2FF"/><path d="M70.29 31.394l4.8-1.395" stroke="#211087" stroke-linecap="round" stroke-linejoin="round"/><path d="M38.536 29.017a1.99 1.99 0 003.942.382 1.99 1.99 0 00-1.946-2.38 2.093 2.093 0 00-1.996 1.998v0zM28.122 41.434a2 2 0 003.08-.305 2.002 2.002 0 00-3.08-2.526 2.082 2.082 0 000 2.83v0zm23.022-3.42a1.992 1.992 0 00-1.403 3.399 1.989 1.989 0 003.06-.3c.22-.326.337-.71.339-1.104a2.09 2.09 0 00-1.996-1.995zM42.52 51.011a1.99 1.99 0 00-3.942-.383 1.99 1.99 0 001.946 2.38 2.093 2.093 0 001.996-1.997v0z" fill="#D6E2FF" stroke="#211087" stroke-linecap="round" stroke-linejoin="round"/></svg>