<svg width="81" height="80" fill="none" xmlns="http://www.w3.org/2000/svg"><path d="M13 18.017l27.534-13.46L67.8 17.995v16.312c-.02 12.67-6.862 22.975-13.757 30.141a73.365 73.365 0 01-9.47 8.25 63.68 63.68 0 01-3.117 2.144 40.753 40.753 0 01-.92.575l-.054-.033c-.202-.125-.5-.311-.879-.558a65.633 65.633 0 01-3.152-2.193 75.414 75.414 0 01-9.572-8.396C19.909 56.96 13 46.543 13 33.855V18.017z" fill="#D6E2FF" stroke="#211087"/><path d="M40.58 70.461s-23.125-13.875-23.125-35.66V21.135L40.58 9.538l22.902 11.579v14.066C63.45 56.937 40.58 70.461 40.58 70.461z" fill="#fff" stroke="#211087"/><path d="M43.109 64.859h0a46.745 46.745 0 01-2.605 1.854 48.02 48.02 0 01-2.642-1.901v-.001a56.127 56.127 0 01-7.025-6.436C25.717 52.793 20.7 44.86 20.7 35.239V23.334l19.8-10.11 19.6 10.09v12.273c-.014 9.608-4.983 17.454-10.046 22.952a54.582 54.582 0 01-6.945 6.32z" fill="#D6E2FF" stroke="#211087"/><path d="M39.324 46.676c-.315.289-.73.278-.98.067l-.062-.06-7.967-7.92-.001-.002a.717.717 0 010-1.02h0l.002-.002 1.74-1.731.002-.002a.731.731 0 011.034 0l.001.002 5.354 5.323.353.35.352-.35 11.482-11.415.002-.001a.729.729 0 011.033 0h.002l1.741 1.731s0 0 0 0a.716.716 0 010 1.024L39.324 46.676z" fill="#fff" stroke="#211087"/></svg>