<svg width="81" height="80" fill="none" xmlns="http://www.w3.org/2000/svg"><path d="M33.144 14.845s-1.754-3.126-2.241-7.62c-.195-1.466.974-2.736 2.436-2.736h15.395c1.462 0 2.631 1.27 2.436 2.736-.487 4.591-2.24 7.62-2.24 7.62" fill="#D6E2FF"/><path fill-rule="evenodd" clip-rule="evenodd" d="M33.338 4.98c-1.19 0-2.11 1.028-1.957 2.18l.001.011a22.56 22.56 0 001.275 5.376c.244.657.473 1.175.64 1.527a12.431 12.431 0 00.25.5l.013.023.003.005-.42.243-.42.241-.002-.003-.005-.009-.016-.03a13.36 13.36 0 01-.274-.546 20.362 20.362 0 01-.673-1.605 23.55 23.55 0 01-1.33-5.609C30.19 5.507 31.607 4 33.337 4h15.396c1.73 0 3.147 1.507 2.915 3.283a23.174 23.174 0 01-1.331 5.648 18.99 18.99 0 01-.674 1.584 12.172 12.172 0 01-.275.535l-.017.03-.005.008-.001.003c0 .001-.001.002-.417-.246l-.417-.248.003-.005.013-.023.052-.096c.046-.087.113-.217.197-.389.166-.343.394-.851.638-1.501a22.183 22.183 0 001.274-5.41l.002-.014c.153-1.15-.767-2.18-1.957-2.18H33.338zm.225 9.623z" fill="#211087"/><path d="M48.247 18.263s5.164 2.15 10.037 5.862c6.528 5.08 13.349 13.97 13.349 29.111 0 17.585-10.524 17.585-18.514 17.585H28.467c-7.99 0-18.514 0-18.514-17.585 0-15.337 6.82-24.227 13.35-29.111 5.066-3.908 10.036-5.862 10.036-5.862h14.908z" fill="#D6E2FF"/><path fill-rule="evenodd" clip-rule="evenodd" d="M33.248 17.774h15.094l.088.037-.183.453.183-.453.005.002.012.005.046.02.177.076a48.983 48.983 0 012.99 1.454c1.916 1.009 4.45 2.488 6.913 4.366l.004.002c6.627 5.157 13.538 14.181 13.538 29.5 0 8.893-2.668 13.49-6.495 15.807-3.745 2.267-8.486 2.267-12.437 2.267h-24.78c-3.952 0-8.693 0-12.437-2.267-3.828-2.318-6.496-6.914-6.496-15.807 0-15.509 6.907-24.537 13.542-29.503 2.561-1.974 5.095-3.454 6.988-4.44a43.556 43.556 0 012.288-1.11 28.382 28.382 0 01.814-.351l.045-.018.012-.005.003-.001h.001l.175.456-.175-.457.085-.033zm.183.979l-.132.055a41.854 41.854 0 00-2.858 1.356c-1.858.968-4.341 2.419-6.846 4.35l-.006.005c-6.42 4.804-13.153 13.554-13.153 28.718 0 8.69 2.593 12.887 6.025 14.965 3.495 2.117 7.98 2.13 12.005 2.13H53.12c4.026 0 8.51-.013 12.005-2.13 3.432-2.078 6.026-6.274 6.026-14.965 0-14.964-6.73-23.719-13.159-28.722-2.408-1.835-4.891-3.285-6.776-4.279a50.32 50.32 0 00-2.286-1.134 34.44 34.44 0 00-.78-.349H33.432z" fill="#211087"/><path d="M41.134 56.851c6.458 0 11.693-5.248 11.693-11.723 0-6.474-5.235-11.722-11.693-11.722-6.458 0-11.693 5.248-11.693 11.722 0 6.475 5.235 11.723 11.693 11.723z" fill="#fff"/><path fill-rule="evenodd" clip-rule="evenodd" d="M41.134 33.895c-6.196 0-11.21 5.034-11.21 11.233 0 6.199 5.014 11.233 11.21 11.233 6.196 0 11.21-5.034 11.21-11.233 0-6.199-5.014-11.233-11.21-11.233zM28.958 45.128c0-6.75 5.456-12.212 12.176-12.212S53.31 38.378 53.31 45.128 47.853 57.34 41.134 57.34c-6.72 0-12.176-5.462-12.176-12.212z" fill="#211087"/><path fill-rule="evenodd" clip-rule="evenodd" d="M38.76 40.581c-.79.442-1.138 1.02-1.138 1.435 0 .606.328 1.044.98 1.432.67.4 1.583.682 2.575.988l.008.002c.956.295 1.99.614 2.78 1.095.812.495 1.452 1.216 1.452 2.319 0 .925-.7 1.767-1.636 2.291-.962.539-2.273.812-3.726.557l-.005-.001c-1.398-.26-2.625-1.117-3.294-1.996l.765-.598c.53.697 1.551 1.416 2.7 1.63 1.245.218 2.33-.022 3.093-.449.788-.442 1.137-1.02 1.137-1.434 0-.632-.335-1.085-.984-1.48-.67-.407-1.58-.694-2.571-1l-.066-.02c-.938-.29-1.945-.6-2.718-1.06-.81-.481-1.456-1.187-1.456-2.276 0-.925.7-1.767 1.636-2.292.961-.538 2.273-.811 3.726-.556a5.375 5.375 0 013.298 1.997l-.765.598a4.411 4.411 0 00-2.698-1.63c-1.244-.219-2.332.021-3.094.448z" fill="#211087"/><path fill-rule="evenodd" clip-rule="evenodd" d="M40.553 52.26V37.607h.966V52.26h-.966z" fill="#211087"/><path d="M33.144 18.264H48.93c.78 0 1.461-.684 1.461-1.466v-1.27c0-.781-.682-1.465-1.461-1.465H33.144c-.78 0-1.461.684-1.461 1.465v1.27c0 .782.682 1.466 1.461 1.466z" fill="#fff"/><path fill-rule="evenodd" clip-rule="evenodd" d="M31.199 15.528c0-1.056.903-1.955 1.944-1.955H48.93c1.041 0 1.944.899 1.944 1.955v1.27c0 1.057-.903 1.955-1.944 1.955H33.143c-1.041 0-1.944-.898-1.944-1.955v-1.27zm1.944-.975c-.517 0-.978.47-.978.975v1.27c0 .507.46.976.978.976H48.93c.517 0 .978-.47.978-.976v-1.27c0-.506-.46-.975-.978-.975H33.143z" fill="#211087"/><path d="M76.017 70.626h-16.37v4.591h16.37v-4.591z" fill="#fff"/><path fill-rule="evenodd" clip-rule="evenodd" d="M59.164 70.136H76.5v5.57H59.164v-5.57zm.966.98v3.612h15.404v-3.613H60.13z" fill="#211087"/><path d="M63.35 70.626H46.98v4.591h16.37v-4.591z" fill="#D6E2FF"/><path fill-rule="evenodd" clip-rule="evenodd" d="M46.497 70.136h17.336v5.57H46.497v-5.57zm.965.98v3.612h15.405v-3.613H47.463z" fill="#211087"/><path d="M71.145 66.034h-16.37v4.592h16.37v-4.592z" fill="#fff"/><path fill-rule="evenodd" clip-rule="evenodd" d="M54.292 65.545h17.336v5.57H54.292v-5.57zm.966.979v3.612h15.404v-3.612H55.258z" fill="#211087"/><path d="M76.017 61.541h-16.37v4.591h16.37v-4.591z" fill="#D6E2FF"/><path fill-rule="evenodd" clip-rule="evenodd" d="M59.164 61.051H76.5v5.571H59.164v-5.57zm.966.98v3.612h15.404v-3.612H60.13z" fill="#211087"/><path d="M15.215 75.51c5.651 0 10.23-4.59 10.23-10.257 0-5.666-4.579-10.257-10.23-10.257-5.652 0-10.232 4.591-10.232 10.257 0 5.666 4.483 10.257 10.232 10.257z" fill="#D6E2FF"/><path fill-rule="evenodd" clip-rule="evenodd" d="M4.5 65.253c0-5.941 4.8-10.747 10.714-10.747 5.914 0 10.714 4.806 10.714 10.747 0 5.942-4.8 10.747-10.714 10.747C9.2 76 4.5 71.192 4.5 65.253zm10.714-9.768c-5.39 0-9.748 4.377-9.748 9.768 0 5.394 4.264 9.768 9.748 9.768 5.39 0 9.748-4.377 9.748-9.768 0-5.39-4.358-9.768-9.748-9.768z" fill="#211087"/><path d="M15.214 59.196l1.462 4.2h4.385l-3.605 2.638 1.461 4.201-3.605-2.638-3.605 2.638 1.461-4.2-3.605-2.638h4.58l1.071-4.201z" fill="#fff"/><path fill-rule="evenodd" clip-rule="evenodd" d="M15.144 57.52l1.874 5.387h5.537l-4.523 3.31 1.854 5.33-4.574-3.346-4.574 3.347 1.855-5.331-4.524-3.31h5.7l1.375-5.387zm.142 3.352l-.77 3.014h-3.458l2.686 1.966-1.068 3.07 2.636-1.928 2.637 1.929-1.069-3.071 2.687-1.966h-3.233l-1.048-3.014z" fill="#211087"/></svg>