<svg width="80" height="80" fill="none" xmlns="http://www.w3.org/2000/svg"><path d="M11.552 64.75h56.896a5.753 5.753 0 005.77-5.77V21.02a5.753 5.753 0 00-5.77-5.771H11.552a5.753 5.753 0 00-5.77 5.77V58.98c0 3.156 2.614 5.77 5.77 5.77z" fill="#D6E2FF"/><path fill-rule="evenodd" clip-rule="evenodd" d="M5.23 21.02a6.305 6.305 0 016.322-6.323h56.896a6.305 6.305 0 016.322 6.323v37.96a6.305 6.305 0 01-6.322 6.323H11.552c-3.46 0-6.323-2.862-6.323-6.323V21.02zm6.322-5.22a5.201 5.201 0 00-5.219 5.22v37.96c0 2.851 2.368 5.22 5.219 5.22h56.896a5.201 5.201 0 005.219-5.22V21.02a5.201 5.201 0 00-5.22-5.22H11.553z" fill="#211087"/><path d="M5.601 20.479H74.4a5.041 5.041 0 015.05 5.049v29.034a5.041 5.041 0 01-5.05 5.05H5.6a5.041 5.041 0 01-5.05-5.05V25.528a5.041 5.041 0 015.05-5.05z" fill="#fff"/><path fill-rule="evenodd" clip-rule="evenodd" d="M5.601 21.03a4.49 4.49 0 00-4.497 4.498v29.034A4.49 4.49 0 005.6 59.06h68.8a4.49 4.49 0 004.498-4.498V25.528A4.49 4.49 0 0074.4 21.03H5.6zM0 25.528c0-3.1 2.501-5.601 5.601-5.601H74.4c3.1 0 5.601 2.501 5.601 5.601v29.034c0 3.1-2.501 5.601-5.601 5.601H5.6A5.593 5.593 0 010 54.562V25.528z" fill="#211087"/><path d="M25.257 20.479H5.781V59.61h19.476V20.48z" fill="#D6E2FF"/><path fill-rule="evenodd" clip-rule="evenodd" d="M5.23 19.927h20.027v.552h.552v39.684H5.23V19.927zm19.476 1.103H6.333v38.03h18.373V21.03z" fill="#211087"/><path d="M49.783 20.479H30.307V59.61h19.476V20.48z" fill="#D6E2FF"/><path fill-rule="evenodd" clip-rule="evenodd" d="M29.755 19.927h20.028v.552h.552v39.684h-20.58V19.927zm19.476 1.103H30.86v38.03h18.37V21.03z" fill="#211087"/><path d="M74.129 20.479H54.651V59.61H74.13V20.48z" fill="#D6E2FF"/><path fill-rule="evenodd" clip-rule="evenodd" d="M54.1 19.927h20.03v.552h.551v39.684H54.1V19.927zm19.477 1.103H55.204v38.03h18.373V21.03z" fill="#211087"/><path d="M13.265 46.898l-.09-.36c.27-2.796 1.353-5.501 3.066-7.755l.45-.632-.81-.09c-.542-.09-.993-.27-1.534-.45-.36-.18-.811-.271-1.262-.361-.36 0-.721.09-.992.36-.27.18-.54.541-.631.902 0 .18-.18.36-.27.541-.18.09-.361.18-.542.18h-.63c-.09 0-.271 0-.361-.09-.09 0-.18-.09-.27-.18-.091-.09-.181-.18-.181-.27 0-.09-.09-.18-.09-.361v-4.148c0-.09 0-.27.09-.36 0-.09.09-.18.18-.271.09-.09.18-.18.27-.18.09 0 .181-.09.361-.09h.631c.271 0 .451.09.632.27l.27.27.36-.09c.632-.27 1.263-.36 1.984-.36.722 0 1.353.18 1.984.45.631.271 1.263.361 1.894.361.901 0 1.713-.27 2.434-.631.09-.09.09-.09.18-.09h.18a.82.82 0 01.632.27l.45.632c.091.09.181.27.181.45s0 .27-.09.451c-2.615 7.033-3.336 10.099-3.426 11.632v.09h-.09l-4.96-.09z" fill="#fff"/><path fill-rule="evenodd" clip-rule="evenodd" d="M9.76 33.962v.09l-.09.09v4.184a.42.42 0 00.013.033l.007.018a1.336 1.336 0 01.052.16l.036.036.02.019h.09l.09.09h.672c.001 0 .022 0 .077-.022a.719.719 0 00.074-.03l.01-.015.038-.057.044-.068a.722.722 0 00.017-.03v-.016l.017-.066c.12-.478.452-.935.815-1.195.404-.38.911-.485 1.343-.485h.055l.053.01.037.008c.412.082.907.181 1.327.383l.313.107c.395.136.712.245 1.087.309l1.73.192-1.002 1.403-.005.007c-1.605 2.111-2.634 4.631-2.93 7.238l4.052.073c.195-1.736 1.026-4.91 3.422-11.354l.01-.028.014-.027a.254.254 0 00.028-.069l.003-.035v-.1l-.001-.012a.182.182 0 00-.023-.054l-.026-.027-.448-.626a.327.327 0 00-.087-.061.295.295 0 00-.125-.02h-.05l-.064.032c-.77.384-1.667.689-2.681.689-.686 0-1.395-.098-2.111-.405-.588-.253-1.143-.407-1.766-.407-.673 0-1.225.084-1.767.316l-.04.018-.707.176-.491-.49.39-.391m0 0l-.39.39a.4.4 0 00-.116-.089.296.296 0 00-.126-.02h-.625a.51.51 0 00-.033.013l-.017.008a.819.819 0 01-.16.052l-.037.036a5.046 5.046 0 01-.018.019m9.106 12.952v.626h-.651l-5.382-.098-.216-.863.009-.095c.275-2.843 1.358-5.59 3.07-7.895-.443-.083-.841-.22-1.226-.354l-.297-.101-.037-.012-.035-.018c-.27-.135-.623-.212-1.067-.302-.249.008-.428.076-.55.199l-.04.038-.045.03c-.15.101-.324.326-.39.538a1.132 1.132 0 01-.18.468l-.075.114a2.335 2.335 0 00-.069.111l-.082.165-.165.082-.029.014c-.157.08-.443.224-.759.224h-.636c-.046 0-.152 0-.266-.018a.952.952 0 01-.318-.11.857.857 0 01-.238-.129c-.077-.058-.147-.128-.187-.167l-.007-.008-.007-.007c-.04-.04-.11-.11-.168-.187a.803.803 0 01-.162-.381 1.1 1.1 0 01-.095-.446v-4.154c0-.045 0-.151.019-.265a.953.953 0 01.11-.318.858.858 0 01.128-.238c.058-.077.128-.147.168-.187l.007-.007.007-.007c.04-.04.11-.11.187-.168.067-.05.2-.14.382-.162l.026-.01c.087-.035.23-.085.42-.085h.63c.2 0 .391.034.574.115.18.08.325.194.448.317l.05.05.016-.005c.705-.294 1.403-.387 2.159-.387.82 0 1.527.206 2.2.495.546.234 1.1.316 1.677.316.76 0 1.46-.219 2.112-.535l.007-.006a.65.65 0 01.387-.175c.044-.005.088-.005.105-.005h.184c.2 0 .39.034.573.115.18.08.326.194.448.317l.033.032.456.64c.17.19.304.487.304.8v.015c0 .078 0 .188-.019.302a1.29 1.29 0 01-.115.352c-2.6 6.996-3.294 9.987-3.383 11.43z" fill="#211087"/><path d="M38.061 46.898l-.09-.361c.27-2.795 1.353-5.5 3.066-7.755l.45-.63-.901-.181c-.541-.09-.992-.27-1.533-.45-.36-.181-.811-.271-1.262-.361-.36 0-.722.09-.992.36-.27.18-.541.541-.541.902 0 .18-.18.36-.27.54-.18.181-.361.181-.542.181h-.63c-.09 0-.271 0-.361-.09-.09 0-.18-.09-.27-.18-.091-.09-.181-.18-.181-.27 0-.091-.09-.181-.09-.361v-4.238c0-.09 0-.27.09-.361 0-.09.09-.18.18-.27.09-.09.18-.18.27-.18.09 0 .18-.091.361-.091h.631c.27 0 .451.09.632.27l.27.27.36-.09c.632-.27 1.263-.36 1.984-.36.722 0 1.353.18 1.984.45.631.271 1.262.362 1.894.362.901 0 1.713-.27 2.434-.632.09-.09.09-.09.18-.09h.18a.82.82 0 01.632.27l.45.632c.091.09.181.27.181.45 0 .181 0 .271-.09.452-2.615 7.033-3.336 10.098-3.426 11.631v.09h-.18l-4.87.09z" fill="#fff"/><path fill-rule="evenodd" clip-rule="evenodd" d="M34.556 33.782v.09l-.09.09v4.274a.227.227 0 00.012.033l.008.017.024.064a.834.834 0 01.028.096 2.92 2.92 0 00.055.055h.09l.09.09h.673a1.749 1.749 0 00.12-.003 2.76 2.76 0 01.078-.12l.045-.068a.76.76 0 00.018-.031 1.54 1.54 0 01.256-.764 1.92 1.92 0 01.485-.513c.404-.38.911-.484 1.343-.484h.054l.054.01.036.008c.412.082.908.181 1.328.383l.313.106c.4.138.72.248 1.1.312l.01.001 1.747.35-.952 1.332-.005.007c-1.601 2.106-2.63 4.62-2.929 7.22l4.05-.075c.191-1.734 1.02-4.907 3.423-11.368l.01-.028.014-.027a.232.232 0 00.028-.07c0-.003.002-.013.002-.034l.001-.1-.002-.012a.182.182 0 00-.022-.054l-.027-.027-.447-.627a.332.332 0 00-.087-.06.297.297 0 00-.125-.02h-.05l-.064.031c-.77.385-1.667.69-2.681.69-.686 0-1.395-.099-2.111-.406-.588-.252-1.144-.406-1.767-.406-.672 0-1.224.084-1.766.316l-.04.017-.707.177-.492-.491a.4.4 0 00-.115-.09.296.296 0 00-.126-.02h-.625a.428.428 0 00-.015.006l-.018.008-.017.007a.842.842 0 01-.16.052 5.542 5.542 0 00-.056.056zm9.106 12.952v.625h-.727l-5.303.099-.22-.88.01-.094c.278-2.87 1.378-5.642 3.118-7.96l-.054-.01c-.477-.08-.901-.228-1.31-.369a28.35 28.35 0 00-.297-.101l-.038-.013-.035-.017c-.27-.135-.622-.213-1.066-.302-.249.008-.428.076-.55.198l-.04.04-.045.03a.793.793 0 00-.214.222.439.439 0 00-.081.22c0 .26-.126.467-.186.563a5.31 5.31 0 01-.074.113l-.02.032a.834.834 0 00-.049.08l-.04.08-.063.063c-.343.343-.723.342-.916.342h-.652c-.046 0-.152 0-.266-.019a.954.954 0 01-.318-.11.862.862 0 01-.238-.128 1.798 1.798 0 01-.187-.168l-.007-.007-.007-.007c-.04-.04-.11-.11-.168-.187a.804.804 0 01-.162-.382l-.01-.026a1.098 1.098 0 01-.085-.42v-4.243c0-.046 0-.152.019-.265a.951.951 0 01.11-.318.855.855 0 01.128-.238 1.64 1.64 0 01.168-.187l.007-.008.007-.007c.04-.04.11-.11.187-.168.067-.05.2-.139.382-.161l.026-.011a1.1 1.1 0 01.42-.085h.63c.2 0 .391.034.574.116.18.08.325.194.448.316l.05.05.015-.004c.706-.295 1.404-.387 2.16-.387.82 0 1.526.206 2.2.495.546.234 1.1.316 1.677.316.76 0 1.46-.22 2.112-.536l.007-.006a.652.652 0 01.387-.175c.044-.005.088-.004.105-.004h.184c.199 0 .39.034.573.115.18.08.325.194.448.317l.032.032.457.64c.17.19.304.487.304.8v.015c0 .078 0 .187-.019.301-.02.124-.06.237-.115.353-2.6 6.995-3.294 9.986-3.383 11.43z" fill="#211087"/><path d="M62.136 46.898l-.09-.36c.27-2.796 1.353-5.5 3.066-7.755l.45-.631-.9-.09c-.542-.09-.993-.27-1.534-.451-.36-.18-.811-.27-1.262-.36-.36 0-.721.09-.992.36-.27.18-.54.541-.54.902 0 .18-.181.36-.271.54-.18.181-.361.181-.541.181h-.632c-.09 0-.27 0-.36-.09-.09 0-.18-.09-.27-.18-.09-.09-.181-.18-.181-.271 0-.09-.09-.18-.09-.36v-4.239c0-.09 0-.27.09-.36 0-.09.09-.18.18-.27.09-.09.18-.181.27-.181.09 0 .181-.09.361-.09h.632c.27 0 .45.09.63.27l.271.27.361-.09c.631-.27 1.262-.36 1.984-.36.721 0 1.352.18 1.983.45.541.271 1.172.361 1.804.361.901 0 1.713-.27 2.434-.63.09-.09.09-.09.18-.09h.18a.82.82 0 01.632.27l.45.63c.091.09.181.271.181.452 0 .18 0 .27-.09.45-2.615 7.033-3.336 10.1-3.426 11.632v.09h-4.96z" fill="#fff"/><path fill-rule="evenodd" clip-rule="evenodd" d="M58.72 34.048v.09l-.09.09v4.275a.428.428 0 00.014.033l.007.017a1.234 1.234 0 01.052.16l.036.036.02.02h.09l.089.089h.674a1.638 1.638 0 00.119-.003l.04-.063.038-.058.045-.067a.665.665 0 00.018-.031 1.54 1.54 0 01.256-.764c.13-.203.302-.382.485-.513.404-.38.911-.484 1.343-.484h.054l.054.01.036.008c.412.082.908.18 1.328.382l.313.107c.4.138.72.248 1.1.312l.01.001 1.747.35-.952 1.332-.005.006c-1.601 2.107-2.63 4.62-2.929 7.22l4.05-.074c.192-1.734 1.02-4.907 3.423-11.369l.01-.028.014-.026a.26.26 0 00.028-.07 2.83 2.83 0 00.004-.135l-.002-.012a.172.172 0 00-.023-.054l-.026-.026-.448-.627a.331.331 0 00-.087-.06.296.296 0 00-.125-.021h-.05l-.064.032c-.77.385-1.667.69-2.681.69-.686 0-1.395-.099-2.111-.406-.588-.252-1.143-.406-1.766-.406-.673 0-1.224.083-1.767.316l-.04.017-.707.177-.492-.491a.402.402 0 00-.115-.09.297.297 0 00-.126-.02h-.625l-.015.006a2.34 2.34 0 00-.018.008l-.017.007a.834.834 0 01-.16.052 3.826 3.826 0 00-.055.055zm9.108 12.953v.625H67.1l-5.302.098-.22-.879.009-.094c.278-2.87 1.378-5.642 3.118-7.96l-.054-.01c-.477-.08-.901-.228-1.31-.37l-.297-.1-.037-.013-.036-.017c-.27-.135-.622-.213-1.066-.302-.249.008-.428.076-.55.198l-.04.039-.045.03a.793.793 0 00-.214.223.438.438 0 00-.081.22c0 .26-.126.467-.186.563a4.463 4.463 0 01-.095.145.86.86 0 00-.048.08l-.04.08-.063.063c-.343.343-.723.342-.916.342h-.652c-.046 0-.152 0-.266-.019a.953.953 0 01-.318-.11.857.857 0 01-.238-.128c-.077-.058-.147-.128-.187-.168l-.007-.007-.007-.008c-.04-.04-.11-.109-.168-.187a.803.803 0 01-.162-.38l-.01-.027a1.1 1.1 0 01-.085-.42v-4.243c0-.046 0-.152.019-.266a.957.957 0 01.11-.318.862.862 0 01.128-.237 1.64 1.64 0 01.168-.187l.007-.008.007-.007c.04-.04.11-.11.187-.168.067-.05.2-.14.382-.161l.026-.011a1.1 1.1 0 01.42-.085h.63c.2 0 .391.034.574.115.18.08.325.194.448.317l.05.05.015-.004c.706-.295 1.404-.388 2.16-.388.82 0 1.526.207 2.2.496.546.234 1.1.316 1.677.316.76 0 1.46-.22 2.112-.536a.653.653 0 01.498-.185h.185c.199 0 .39.033.573.115.18.08.326.194.448.317l.032.032.457.64c.17.19.304.487.304.8v.014c0 .079 0 .188-.019.302-.02.124-.06.237-.115.352-2.6 6.996-3.294 9.987-3.382 11.43zm-42.48-18.216H5.78v-1.103h19.567v1.103zm0 24.075H5.78v-1.103h19.567v1.103zm24.435-24.075H30.217v-1.103h19.566v1.103zm0 24.075H30.217v-1.103h19.566v1.103zm24.436-24.075H54.652v-1.103H74.22v1.103zM54.652 51.757H74.22v1.103H54.652v-1.103z" fill="#211087"/></svg>