<svg width="80" height="80" viewBox="0 0 80 80" fill="none" xmlns="http://www.w3.org/2000/svg">
<path d="M23.59 26.0626C23.4302 25.7913 23.0323 25.8398 22.9331 26.1291C22.1703 28.3564 20.4472 30.5817 18.0816 32.3952C17.581 32.7789 14.61 41.3157 18.1833 47.3161C18.2342 47.4016 18.3178 47.4625 18.4149 47.4845C18.4415 47.4905 18.4686 47.4936 18.4955 47.4936C18.5665 47.4936 18.6365 47.4728 18.6965 47.4329C24.7293 43.4237 27.286 32.3423 23.59 26.0626Z" fill="#D6E2FF" stroke="#211087" stroke-linecap="round" stroke-linejoin="round"/>
<path d="M48.5405 61.8501C49.402 61.8501 50.2509 61.9033 51.0859 62.0021C53.1211 53.995 56.9383 41.9721 62.7454 36.8315C62.7454 36.8315 55.4165 38.8505 45.0537 62.1329C46.1884 61.9469 47.3531 61.8501 48.5405 61.8501Z" fill="#D6E2FF" stroke="#211087" stroke-linecap="round" stroke-linejoin="round"/>
<path d="M38.3245 61.8723C31.7282 30.5722 23.1792 26.2185 23.1792 26.2185C28.834 33.9087 30.491 49.117 30.9262 59.5226C33.5359 59.9541 36.0205 60.756 38.3245 61.8723Z" fill="#D6E2FF" stroke="#211087" stroke-linecap="round" stroke-linejoin="round"/>
<path d="M62.8045 36.3595C62.7899 36.3487 62.6992 36.2076 62.494 36.2124C59.5489 36.3407 56.3907 34.7345 54.1426 32.7162C54.0813 32.6612 54.0032 32.6286 53.9211 32.6238C50.6244 32.4324 47.4533 33.2752 45.4368 34.8811C45.2749 35.0102 45.2527 35.2491 45.3905 35.4055C49.2425 39.7797 58.2962 40.5427 62.8139 36.9454C62.8918 36.8833 62.9407 36.7922 62.9495 36.6932C62.9638 36.5309 62.88 36.4412 62.8045 36.3595Z" fill="white" stroke="#211087" stroke-linecap="round" stroke-linejoin="round"/>
<path d="M65.7999 42.5839C65.7885 42.5209 65.7607 42.4622 65.7192 42.4135C64.2002 40.6267 63.2438 38.6313 63.0262 36.7948C62.9897 36.4855 62.6069 36.365 62.3981 36.5915C58.4832 40.844 58.5751 49.8936 62.6241 54.0521C62.7416 54.1729 62.9031 54.1649 62.8884 54.162C62.988 54.1609 63.0826 54.1189 63.1504 54.0461C65.7554 51.2457 66.507 46.4787 65.7999 42.5839Z" fill="#D6E2FF" stroke="#211087" stroke-linecap="round" stroke-linejoin="round"/>
<path d="M44.9951 28.4745C42.947 25.9729 39.2775 24.1004 35.1793 23.4649C35.098 23.4522 35.0149 23.4677 34.9434 23.5085C34.7699 23.6076 34.5948 23.7055 34.4165 23.8004C30.7635 25.7454 26.7314 26.4238 23.6306 25.6135C23.5261 25.5859 23.4149 25.607 23.3272 25.6697C23.2543 25.7213 23.2307 25.7382 23.204 25.758C23.124 25.8171 23.0718 25.9065 23.0594 26.0051C23.0472 26.1038 23.0759 26.2034 23.1389 26.2803C27.744 31.9047 39.076 33.3249 44.9302 28.997C45.0102 28.9378 45.0624 28.8484 45.0747 28.7498C45.0868 28.651 45.0581 28.5514 44.9951 28.4745Z" fill="white" stroke="#211087" stroke-linecap="round" stroke-linejoin="round"/>
<path d="M65.3918 69.729C61.4345 64.7538 55.2307 61.5593 48.3961 61.5593C45.6864 61.5593 43.0953 62.0635 40.708 62.9792C44.1799 65.1427 45.9695 68.0618 48.167 71.5102H64.1297C66.5123 71.5103 65.6953 70.1445 65.3918 69.729Z" fill="#D6E2FF" stroke="#211087"/>
<path d="M48.7029 70.3631C46.185 66.8133 42.8275 63.8883 38.9931 61.9044C27.1407 55.7719 12.1976 59.0603 4.18074 70.3631C3.84015 70.8432 4.18398 71.5102 4.77348 71.5102H48.1103C48.3821 71.5102 48.6312 71.3585 48.7559 71.117C48.8805 70.8757 48.8601 70.5849 48.7029 70.3631Z" fill="#D6E2FF" stroke="#211087"/>
<path d="M23.6258 25.9951C23.5791 25.9072 23.4984 25.8425 23.4025 25.8158C16.3992 23.8663 6.31756 29.2196 4.01863 36.1362C3.95324 36.333 4.06574 36.545 4.26599 36.6007C5.2287 36.8688 6.27495 36.9998 7.37168 36.9998C14.1937 36.9998 21.7334 32.046 23.6498 26.2803C23.6812 26.1859 23.6725 26.083 23.6258 25.9951Z" fill="white" stroke="#211087" stroke-linecap="round" stroke-linejoin="round"/>
<path d="M42.4318 15.492C37.714 14.1793 31.8446 16.1898 27.8862 19.3461C27.8322 19.3893 27.7914 19.4471 27.7691 19.5125C26.8447 22.2094 25.2453 24.4543 23.3806 25.6714C23.2599 25.7502 23.1972 25.8929 23.2207 26.0349C23.2442 26.177 23.3494 26.292 23.489 26.3277C27.0874 27.2501 31.3783 26.2412 34.7578 24.4421C38.6388 22.3758 41.6 19.2035 42.6793 15.9567C42.7444 15.7603 42.6325 15.548 42.4318 15.492Z" fill="#D6E2FF" stroke="#211087" stroke-linecap="round" stroke-linejoin="round"/>
<path d="M28.1095 9.18774C28.0615 9.10069 27.9796 9.03713 27.8834 9.01196C27.7872 8.9865 27.6849 9.00211 27.6002 9.05471C22.5869 12.161 20.2569 21.0905 23.1101 26.2487C23.1582 26.3358 23.2399 26.3993 23.3362 26.4245C23.3664 26.4325 23.3972 26.4363 23.428 26.4363C23.495 26.4363 23.5613 26.4178 23.6194 26.3818C28.6415 23.2702 30.9583 14.338 28.1095 9.18774Z" fill="white" stroke="#211087" stroke-linecap="round" stroke-linejoin="round"/>
<path d="M9.97063 14.3201C9.76321 14.3302 9.60628 14.5119 9.62681 14.7186C10.1883 20.4289 16.8427 26.3397 22.6856 26.3397C22.8178 26.3397 22.9492 26.3366 23.0792 26.3301C23.1787 26.3253 23.2716 26.2799 23.3366 26.2047C23.4015 26.1293 23.4329 26.0307 23.4231 25.9316C22.8461 20.065 15.8593 14.0325 9.97063 14.3201Z" fill="#D6E2FF" stroke="#211087" stroke-linecap="round" stroke-linejoin="round"/>
<path d="M75.9979 47.6944C75.3688 41.931 68.4366 36.0646 62.6359 36.4071C62.5364 36.413 62.4439 36.4594 62.3798 36.5354C62.3155 36.6113 62.2853 36.7103 62.2961 36.8093C62.9282 42.6007 69.8879 48.4364 75.6581 48.0965C75.8651 48.0842 76.0206 47.9012 75.9979 47.6944Z" fill="white" stroke="#211087" stroke-linecap="round" stroke-linejoin="round"/>
<path d="M62.7348 36.3213C61.5062 35.08 60.6502 33.092 60.3864 30.8669C60.3784 30.7982 60.3507 30.7332 60.3069 30.6798C57.7446 27.5461 53.5041 25.0169 49.628 25.2435C49.5286 25.2494 49.4361 25.2958 49.372 25.3717C49.3077 25.4478 49.2775 25.5467 49.2883 25.6457C49.8959 31.211 56.4226 36.946 62.1774 36.946C62.4607 36.946 62.7109 36.973 62.8145 36.7103C62.8673 36.5764 62.8361 36.4237 62.7348 36.3213Z" fill="#D6E2FF" stroke="#211087" stroke-linecap="round" stroke-linejoin="round"/>
<path d="M62.2381 22.7552C62.1664 22.686 62.0695 22.6513 61.9703 22.6537C61.871 22.658 61.7776 22.7029 61.7122 22.7779C58.6107 26.333 58.9409 33.6779 62.3255 36.939C62.4747 37.0827 62.7147 37.0729 62.8514 36.9162C65.9529 33.3614 65.6227 26.0163 62.2381 22.7552Z" fill="white" stroke="#211087" stroke-linecap="round" stroke-linejoin="round"/>
<path d="M74.9723 29.7515C72.8338 29.1808 70.0719 29.6514 67.5844 31.0102C65.0966 32.3691 63.208 34.4385 62.5325 36.5459C62.5021 36.6407 62.5119 36.7438 62.5596 36.8311C62.6073 36.9184 62.6887 36.9824 62.7848 37.008C67.3079 38.2151 73.7803 34.7189 75.2247 30.2134C75.2881 30.0157 75.1728 29.8048 74.9723 29.7515Z" fill="#D6E2FF" stroke="#211087" stroke-linecap="round" stroke-linejoin="round"/>
</svg>
