<svg width="81" height="80" fill="none" xmlns="http://www.w3.org/2000/svg"><path fill-rule="evenodd" clip-rule="evenodd" d="M9.659 75.503h37.926c2.701 0 4.646-2.155 4.646-4.633V33.05c0-2.693-2.16-4.633-4.646-4.633H9.66c-2.701 0-4.646 2.155-4.646 4.633v37.712c-.216 2.694 2.053 4.741 4.646 4.741z" fill="#fff"/><path fill-rule="evenodd" clip-rule="evenodd" d="M4.514 33.05c0-2.737 2.153-5.13 5.145-5.13h37.926c2.745 0 5.144 2.147 5.144 5.13v37.82c0 2.737-2.153 5.13-5.144 5.13H9.659c-2.83 0-5.374-2.239-5.145-5.257V33.05zm5.145-4.136c-2.412 0-4.149 1.917-4.149 4.136v37.732l-.001.02c-.19 2.36 1.8 4.205 4.15 4.205h37.926c2.411 0 4.148-1.918 4.148-4.137V33.05c0-2.404-1.923-4.136-4.148-4.136H9.659z" fill="#211087"/><path fill-rule="evenodd" clip-rule="evenodd" d="M40.562 59.73c-2.303 0-4.04 1.918-4.04 4.03 0 2.296 1.922 4.028 4.04 4.028 2.175 0 3.833-1.685 4.04-4.05-.012-2.285-1.93-4.008-4.04-4.008zm-5.037 4.03c0-2.63 2.153-5.023 5.037-5.023 2.636 0 5.036 2.147 5.036 5.022v.021l-.002.02c-.234 2.798-2.246 4.981-5.034 4.981-2.637 0-5.037-2.146-5.037-5.022zm-18.843-4.03c-2.303 0-4.04 1.918-4.04 4.03 0 2.296 1.923 4.028 4.04 4.028 2.196 0 3.938-1.705 4.04-4.039-.005-2.291-1.925-4.019-4.04-4.019zm-5.036 4.03c0-2.63 2.153-5.023 5.036-5.023 2.637 0 5.036 2.147 5.036 5.022v.021c-.119 2.833-2.265 5.001-5.036 5.001-2.636 0-5.036-2.146-5.036-5.022zm5.036-27.734c-2.303 0-4.04 1.917-4.04 4.028 0 2.297 1.923 4.03 4.04 4.03 2.196 0 3.938-1.706 4.04-4.04-.005-2.291-1.925-4.018-4.04-4.018zm-5.036 4.028c0-2.629 2.153-5.022 5.036-5.022 2.637 0 5.036 2.147 5.036 5.023v.02c-.119 2.833-2.265 5.002-5.036 5.002-2.636 0-5.036-2.147-5.036-5.023z" fill="#211087"/><path fill-rule="evenodd" clip-rule="evenodd" d="M32.998 52.122h38.358c2.702 0 4.647-2.155 4.647-4.634V9.13c0-2.694-2.161-4.633-4.647-4.633H32.998c-2.701 0-4.646 2.155-4.646 4.633v38.25c0 2.587 1.945 4.742 4.646 4.742z" fill="#D6E2FF"/><path fill-rule="evenodd" clip-rule="evenodd" d="M27.854 9.13c0-2.737 2.152-5.13 5.144-5.13h38.358C74.101 4 76.5 6.147 76.5 9.13v38.358c0 2.738-2.153 5.13-5.144 5.13H32.998c-2.999 0-5.144-2.4-5.144-5.237V9.13zm5.144-4.137c-2.411 0-4.148 1.918-4.148 4.137v38.25c0 2.335 1.744 4.245 4.148 4.245h38.358c2.411 0 4.148-1.917 4.148-4.137V9.13c0-2.405-1.923-4.137-4.148-4.137H32.998z" fill="#211087"/><path fill-rule="evenodd" clip-rule="evenodd" d="M40.562 36.026c-2.303 0-4.04 1.917-4.04 4.028 0 2.297 1.922 4.03 4.04 4.03 2.175 0 3.833-1.686 4.04-4.05-.012-2.286-1.93-4.008-4.04-4.008zm-5.037 4.028c0-2.629 2.153-5.022 5.037-5.022 2.636 0 5.036 2.147 5.036 5.023v.02l-.002.02c-.234 2.798-2.246 4.982-5.034 4.982-2.637 0-5.037-2.147-5.037-5.023zm16.922-16.097c-2.303 0-4.04 1.918-4.04 4.03 0 2.296 1.922 4.028 4.04 4.028 2.234 0 4.04-1.525 4.04-4.029 0-2.296-1.923-4.029-4.04-4.029zm-5.036 4.03c0-2.63 2.152-5.023 5.036-5.023 2.636 0 5.036 2.147 5.036 5.022 0 3.1-2.3 5.022-5.036 5.022-2.637 0-5.036-2.146-5.036-5.022zm-6.849-15.775c-2.303 0-4.04 1.918-4.04 4.03 0 2.296 1.922 4.028 4.04 4.028 2.184 0 3.834-1.587 4.04-4.048-.011-2.287-1.929-4.01-4.04-4.01zm-5.037 4.03c0-2.63 2.153-5.023 5.037-5.023 2.636 0 5.036 2.147 5.036 5.022v.02l-.002.02c-.234 2.915-2.254 4.982-5.034 4.982-2.637 0-5.037-2.146-5.037-5.022zm28.807 19.784c-2.303 0-4.04 1.917-4.04 4.028 0 2.297 1.922 4.03 4.04 4.03 2.218 0 4.04-1.726 4.04-4.03 0-2.296-1.923-4.028-4.04-4.028zm-5.037 4.028c0-2.629 2.153-5.022 5.037-5.022 2.636 0 5.036 2.147 5.036 5.023 0 2.867-2.284 5.022-5.036 5.022-2.637 0-5.037-2.147-5.037-5.023zm5.037-27.842c-2.303 0-4.04 1.918-4.04 4.03 0 2.296 1.922 4.028 4.04 4.028 2.226 0 4.04-1.625 4.04-4.029 0-2.296-1.923-4.029-4.04-4.029zm-5.037 4.03c0-2.63 2.153-5.023 5.037-5.023 2.636 0 5.036 2.147 5.036 5.022 0 2.984-2.292 5.022-5.036 5.022-2.637 0-5.037-2.146-5.037-5.022z" fill="#211087"/></svg>