<svg width="80" height="80" fill="none" xmlns="http://www.w3.org/2000/svg"><path d="M13.596 24.376c.787-.812 2.106-.849 2.96-.108l7.733 6.915v7.709L13.573 27.317c-.773-.854-.763-2.13.023-2.94zm10.701-4.479v7.632l-6.851-8.695v0a1.867 1.867 0 01.053-2.383 1.915 1.915 0 012.7-.184l4.098 3.631v-.001z" fill="#D6E2FF" stroke="#211087"/><path d="M25.681 70.82h29.716c1.316 0 2.423-1.187 2.423-2.652V4.742c0-1.43-1.073-2.651-2.423-2.651H25.681c-1.314 0-2.421 1.186-2.421 2.65v63.427c0 1.465 1.072 2.651 2.421 2.651z" fill="#D6E2FF"/><path fill-rule="evenodd" clip-rule="evenodd" d="M55.398 71.91H25.68c-2.029 0-3.5-1.762-3.5-3.742V4.742c0-1.99 1.515-3.742 3.5-3.742h29.717C57.436 1 58.9 2.806 58.9 4.742v63.426c0 1.99-1.517 3.742-3.502 3.742zm0-1.091H25.68c-1.35 0-2.42-1.186-2.42-2.65V4.741c0-1.465 1.106-2.651 2.42-2.651h29.717c1.35 0 2.422 1.222 2.422 2.65v63.427c0 1.465-1.107 2.651-2.422 2.651z" fill="#211087"/><path d="M41.08 69.183c1.193 0 2.16-.977 2.16-2.182a2.17 2.17 0 00-2.16-2.182c-1.193 0-2.16.977-2.16 2.182s.967 2.182 2.16 2.182zM45.4 4.818h-9.72c-.596 0-1.08.489-1.08 1.091 0 .603.484 1.091 1.08 1.091h9.72c.597 0 1.08-.488 1.08-1.091 0-.602-.483-1.09-1.08-1.09z" fill="#D6E2FF" stroke="#211087"/><path d="M25.867 10.273h29.345c.545 0 .988.447.988.998v50.368c0 .55-.443.998-.988.998H25.868a.983.983 0 01-.699-.292 1.003 1.003 0 01-.29-.706V11.27c0-.551.444-.998.988-.998v0z" fill="#fff" stroke="#211087"/><path d="M22.68 59.763l.024 3.12-4.952-4.42-.001-.002c-.893-.805-1.217-2.108-.81-3.27a2.99 2.99 0 011.31-1.534 2.942 2.942 0 011.975-.343l6.7 1.706a2.196 2.196 0 011.65 2.106 2.163 2.163 0 01-2.225 2.155l-3.12-.068-.555-.012.004.562zm-5.675-14.786v-.002c.249-.64.701-1.18 1.286-1.532a3.042 3.042 0 011.946-.413l8.361 1.128h.004c.51.06.98.306 1.321.691.343.386.533.885.537 1.402a2.13 2.13 0 01-2.133 2.122h-5.575l-.004.541-.026 3.392-4.798-3.094h0a3 3 0 01-1.201-1.553 3.033 3.033 0 01.01-1.97l.272-.712zm12.724 26.536h18.075v-.546c0-4.112 1.309-8.546 4.716-11.688a23.332 23.332 0 013.572-2.7 19.21 19.21 0 011.464-.815l.08-.038.019-.008.004-.002.32-.145v-.353h-.54.54V42.684c0-1.032.302-2.363.878-3.419.495-.91 1.131-1.517 1.866-1.678l5.933 20.62a11.807 11.807 0 01-1.285 8.808l-.002.003L58.209 79h-13.43c-5.884 0-11.423-2.793-15.05-7.488v.001z" fill="#D6E2FF" stroke="#211087"/></svg>