<svg width="81" height="80" fill="none" xmlns="http://www.w3.org/2000/svg"><path d="M33 5.524l1.412 26.244a3.992 3.992 0 01-.214 1.597 4.06 4.06 0 01-.83 1.391 4.178 4.178 0 01-1.316.971 4.27 4.27 0 01-3.231.165 4.208 4.208 0 01-1.413-.831 4.092 4.092 0 01-.975-1.3 4.005 4.005 0 01-.383-1.566v-.427l1.412-26.244a2.68 2.68 0 01.874-1.796 2.813 2.813 0 011.895-.73c.704 0 1.381.261 1.895.73A2.68 2.68 0 0133 5.524v0zM57.275 79V61.927h-32.95v12.268L57.275 79zM41.75 3.573l1.362 28.195a4.03 4.03 0 01-1.133 2.866 4.233 4.233 0 01-2.86 1.286 4.252 4.252 0 01-2.969-1.022 4.05 4.05 0 01-1.4-2.752v-.378l1.362-28.195a2.729 2.729 0 01.89-1.83A2.864 2.864 0 0138.931 1c.716 0 1.406.266 1.93.744a2.73 2.73 0 01.888 1.829v0zm7.737 3.792l1.162 24.39a3.477 3.477 0 01-.938 2.541 3.654 3.654 0 01-2.505 1.149 3.671 3.671 0 01-2.604-.916 3.494 3.494 0 01-1.178-2.444v-.33L44.6 7.366c.12-.544.43-1.033.874-1.383.444-.35.999-.541 1.57-.541a2.54 2.54 0 011.57.541c.445.35.753.839.874 1.383v0zm7.263 4.562l1.462 18.292a3.484 3.484 0 01-.9 2.51 3.658 3.658 0 01-2.439 1.187 3.685 3.685 0 01-2.597-.805 3.513 3.513 0 01-1.289-2.343 4.02 4.02 0 010-.549l1.463-18.293c.057-.517.308-.995.705-1.343.397-.348.912-.54 1.445-.54s1.048.193 1.445.54c.396.348.648.826.705 1.344v0z" fill="#D6E2FF" stroke="#211087" stroke-linecap="round" stroke-linejoin="round"/><path d="M64.138 45.182H16.861a2.392 2.392 0 01-1.67-.675 2.277 2.277 0 01-.692-1.63V17.513c0-.613.248-1.2.691-1.635a2.405 2.405 0 011.671-.682h47.276a2.405 2.405 0 011.67.682 2.29 2.29 0 01.692 1.635v25.366c0 .61-.249 1.197-.692 1.63a2.392 2.392 0 01-1.67.674v0z" fill="#D6E2FF" stroke="#211087" stroke-linecap="round" stroke-linejoin="round"/><path d="M59.412 42.878H21.587a4.577 4.577 0 00-1.387-3.26 4.81 4.81 0 00-3.338-1.362V22.122a4.798 4.798 0 003.337-1.354 4.566 4.566 0 001.388-3.256h37.825a4.566 4.566 0 001.387 3.256 4.798 4.798 0 003.338 1.354v16.134a4.81 4.81 0 00-3.338 1.362 4.578 4.578 0 00-1.387 3.26v0z" fill="#fff" stroke="#211087" stroke-linecap="round" stroke-linejoin="round"/><path d="M40.5 39.988c5.523 0 10-4.368 10-9.756 0-5.389-4.477-9.757-10-9.757s-10 4.368-10 9.756c0 5.389 4.477 9.757 10 9.757zM26.313 32.5c.471.002.933-.133 1.326-.387.393-.255.7-.618.88-1.044.18-.425.227-.893.134-1.344a2.301 2.301 0 00-.658-1.19 2.395 2.395 0 00-1.225-.628 2.43 2.43 0 00-1.377.145 2.36 2.36 0 00-1.06.869 2.276 2.276 0 00.321 2.909 2.406 2.406 0 001.659.67zm28.374 0c.472 0 .932-.137 1.324-.393a2.33 2.33 0 00.874-1.046c.178-.426.223-.893.129-1.344a2.302 2.302 0 00-.661-1.186 2.394 2.394 0 00-1.226-.625 2.429 2.429 0 00-1.375.147 2.361 2.361 0 00-1.058.87 2.278 2.278 0 00.323 2.916 2.394 2.394 0 001.67.66v0z" fill="#D6E2FF" stroke="#211087" stroke-linecap="round" stroke-linejoin="round"/><path d="M33.387 45.17c-2.6-4.707-1.25-10.146-3.063-14.45-1.137-2.708-4.575-6.172-7.575-4.879v24.586c0 3.079 1.254 6.032 3.486 8.209a12.052 12.052 0 008.415 3.4h11.625a12.103 12.103 0 008.441-3.419 11.515 11.515 0 003.496-8.24V45.17H33.387z" fill="#D6E2FF" stroke="#211087" stroke-linecap="round" stroke-linejoin="round"/><path d="M40.8 50.83c-1.175-5.891-7.412-5.525-7.412-5.525z" fill="#fff"/><path d="M40.8 50.83c-1.175-5.891-7.412-5.525-7.412-5.525" stroke="#211087" stroke-linecap="round" stroke-linejoin="round"/><path d="M50.5 72.585c.568 0 1.124-.164 1.597-.472a2.821 2.821 0 001.059-1.26 2.742 2.742 0 00.163-1.62 2.785 2.785 0 00-.787-1.436 2.898 2.898 0 00-1.472-.767 2.942 2.942 0 00-1.66.16 2.86 2.86 0 00-1.29 1.032 2.756 2.756 0 00-.27 2.634c.144.34.356.65.623.911s.585.468.934.608c.35.14.724.212 1.102.21v0z" fill="#fff" stroke="#211087" stroke-linecap="round" stroke-linejoin="round"/></svg>