<svg width="80" height="80" fill="none" xmlns="http://www.w3.org/2000/svg"><path d="M57.684 52.73h16.014s1.769-2.122 1.769-5.015c0-3.086-1.769-5.015-1.769-5.015H57.684v10.03z" fill="#D6E2FF"/><path fill-rule="evenodd" clip-rule="evenodd" d="M57.151 42.177h16.785l.159.173-.396.35.396-.35.001.002.002.002.006.007.02.022.065.077c.055.067.13.163.22.287A8.585 8.585 0 0176 47.715c.001 1.55-.472 2.882-.937 3.82a9.37 9.37 0 01-.644 1.108 6.965 6.965 0 01-.28.384l-.018.023-.006.007-.002.002v.001l-.413-.33.412.33-.16.192h-16.8V42.177zm16.28 10.029a8.44 8.44 0 00.672-1.128c.42-.846.831-2.02.831-3.363a7.554 7.554 0 00-1.394-4.362 5.247 5.247 0 00-.096-.13H58.217v8.983h15.214z" fill="#211087"/><path d="M9.445 26.886V65.94h51.187V26.886" fill="#D6E2FF"/><path fill-rule="evenodd" clip-rule="evenodd" d="M8.913 26.886h1.066v38.532h50.12V26.886h1.066v39.578H8.913V26.886z" fill="#211087"/><path d="M44.421 26.885h16.21c0-13.983-11.494-25.362-25.642-25.362-14.147 0-25.642 11.283-25.642 25.362h35.074z" fill="#D6E2FF"/><path fill-rule="evenodd" clip-rule="evenodd" d="M8.814 26.885C8.814 12.52 20.544 1 34.989 1c14.446 0 26.176 11.617 26.176 25.885v.523H8.814v-.523zm1.072-.523h50.207C59.811 12.905 48.662 2.046 34.99 2.046c-13.674 0-24.823 10.768-25.103 24.316z" fill="#211087"/><path d="M42.554 26.886h12.773c0-11.283-9.137-20.251-20.436-20.251-11.298 0-20.435 8.968-20.435 20.25h28.098z" fill="#fff"/><path fill-rule="evenodd" clip-rule="evenodd" d="M13.923 26.886c0-11.568 9.372-20.774 20.968-20.774S55.86 15.318 55.86 26.886v.523H13.923v-.523zm1.073-.523h39.79c-.276-10.75-9.07-19.205-19.895-19.205s-19.618 8.455-19.895 19.205z" fill="#211087"/><path d="M27.375 26.367c0-4.146 3.44-7.521 7.664-7.521s7.663 3.375 7.663 7.521" fill="#D6E2FF"/><path fill-rule="evenodd" clip-rule="evenodd" d="M35.039 19.369c-3.93 0-7.13 3.14-7.13 6.998h-1.067c0-4.435 3.678-8.044 8.197-8.044 4.519 0 8.196 3.609 8.196 8.044h-1.066c0-3.857-3.2-6.998-7.13-6.998z" fill="#211087"/><path d="M65.25 78.477H4.532v-8.004c0-2.604 2.162-4.629 4.716-4.629h51.383c2.653 0 4.716 2.122 4.716 4.629v8.004h-.099z" fill="#D6E2FF"/><path fill-rule="evenodd" clip-rule="evenodd" d="M9.249 66.367c-2.267 0-4.183 1.798-4.183 4.106v7.48h59.748v-7.48c0-2.226-1.831-4.106-4.182-4.106H9.249zM4 70.473c0-2.9 2.407-5.152 5.249-5.152h51.383c2.954 0 5.249 2.363 5.249 5.152V79H4v-8.527z" fill="#211087"/><path d="M39.313 73.366H30.96c-4.224 0-7.663-3.375-7.663-7.522h23.678c0 4.147-3.635 7.522-7.663 7.522z" fill="#fff"/><path fill-rule="evenodd" clip-rule="evenodd" d="M22.765 65.32h24.743v.524c0 4.444-3.883 8.045-8.196 8.045H30.96c-4.52 0-8.196-3.61-8.196-8.045v-.523zm1.085 1.047c.274 3.615 3.36 6.476 7.11 6.476h8.352c3.571 0 6.82-2.869 7.11-6.476H23.85z" fill="#211087"/><path d="M60.533 57.455V37.493c2.751 0 5.109 2.218 5.109 5.015v9.836c.197 2.797-2.26 5.111-5.109 5.111z" fill="#D6E2FF"/><path fill-rule="evenodd" clip-rule="evenodd" d="M60 36.97h.533c3.039 0 5.642 2.446 5.642 5.538v9.819c.208 3.125-2.526 5.651-5.642 5.651H60V36.97zm1.066 1.078v18.854c2.336-.264 4.205-2.234 4.044-4.522l-.001-.018v-9.854c0-2.319-1.816-4.198-4.043-4.46z" fill="#211087"/><path d="M70.456 19.556h-2.653v23.337h2.653V19.556z" fill="#D6E2FF"/><path fill-rule="evenodd" clip-rule="evenodd" d="M67.27 18.863h3.72v24.383h-3.72V18.863zm1.067 1.047V42.2h1.586V19.91h-1.586z" fill="#211087"/><path d="M69.278 22.546c2.16 0 3.733-1.735 3.733-3.857 0-2.121-1.769-3.857-3.733-3.857-2.162 0-3.734 1.736-3.734 3.857-.098 2.122 1.572 3.857 3.734 3.857z" fill="#fff"/><path fill-rule="evenodd" clip-rule="evenodd" d="M65.01 18.677c.006-2.37 1.78-4.368 4.267-4.368 2.277 0 4.266 1.987 4.266 4.38 0 2.375-1.775 4.38-4.266 4.38-2.465 0-4.372-1.981-4.267-4.392zm4.267-3.322c-1.832 0-3.2 1.466-3.2 3.334v.024c-.086 1.827 1.346 3.31 3.2 3.31 1.832 0 3.2-1.465 3.2-3.334 0-1.85-1.547-3.334-3.2-3.334z" fill="#211087"/><path d="M14.358 32.672h10.316V52.73H14.358V32.672z" fill="#fff"/><path fill-rule="evenodd" clip-rule="evenodd" d="M13.824 32.149h11.382v21.104H13.824V32.15zm1.066 1.046v19.012h9.25V33.195h-9.25z" fill="#211087"/><path d="M29.783 32.672h10.316V52.73H29.783V32.672z" fill="#fff"/><path fill-rule="evenodd" clip-rule="evenodd" d="M29.249 32.149h11.382v21.104H29.249V32.15zm1.066 1.046v19.012h9.25V33.195h-9.25z" fill="#211087"/><path d="M45.01 32.672h10.317V52.73H45.01V32.672z" fill="#fff"/><path fill-rule="evenodd" clip-rule="evenodd" d="M44.477 32.149H55.86v21.104H44.477V32.15zm1.067 1.046v19.012h9.25V33.195h-9.25zm-21.067 5.786h-10.12v-1.046h10.12v1.046zm0 7.907h-10.12V45.84h10.12v1.047zm15.425-7.907h-10.12v-1.046h10.12v1.046zm0 7.907h-10.12V45.84h10.12v1.047z" fill="#211087"/><path fill-rule="evenodd" clip-rule="evenodd" d="M55.327 38.981H45.01v-1.046h10.316v1.046zm0 7.907H45.01V45.84h10.316v1.047z" fill="#211087"/></svg>