<svg width="81" height="80" fill="none" xmlns="http://www.w3.org/2000/svg"><path d="M36.704 5.864L2.449 11.261c-1.201.2-2.003 1.3-1.802 2.498L9.16 66.528c.2 1.1 1.302 1.899 2.504 1.799l34.254-5.397c1.102-.2 2.003-1.3 1.803-2.498L39.107 7.563c-.2-1.099-1.201-1.998-2.403-1.699z" fill="#fff"/><path fill-rule="evenodd" clip-rule="evenodd" d="M11.714 68.929c-1.48.123-2.888-.857-3.15-2.294l-.002-.012L.05 13.86v-.001c-.256-1.536.777-2.94 2.3-3.194h.006l34.23-5.393c1.614-.386 2.873.843 3.117 2.184l.002.011 8.613 52.865v.001c.26 1.56-.9 2.94-2.291 3.193l-.014.002-34.276 5.4-.022.002zm-.121-1.204l34.223-5.392c.809-.15 1.447-.967 1.308-1.803v-.002L38.51 7.667c-.157-.848-.887-1.409-1.662-1.215l-.025.006-34.276 5.4h-.002c-.878.148-1.447.94-1.303 1.802v.003l8.513 52.761c.14.754.924 1.366 1.837 1.3z" fill="#211087"/><path fill-rule="evenodd" clip-rule="evenodd" d="M9.21 13.597c.374.313.582.76.649 1.226l.001.013.002.013c.124 1.242-.527 2.327-1.11 3.041a7.845 7.845 0 01-1.201 1.177l-.022.017c-.137.108-.28.125-.316.13a.758.758 0 01-.16.001 1.285 1.285 0 01-.196-.036 3.412 3.412 0 01-.411-.139 6.45 6.45 0 01-1.098-.576c-.771-.505-1.703-1.354-1.894-2.56l-.002-.01v-.01c-.142-1.125.584-2.023 1.609-2.173.502-.081.949.031 1.314.242a2.142 2.142 0 011.264-.736l.058-.012h.126c.531-.057 1.015.079 1.388.392zM7 17.957l.11-.098c.197-.175.455-.427.705-.734.516-.632.915-1.39.845-2.142-.035-.226-.126-.376-.227-.46-.094-.08-.246-.144-.5-.113l-.037.005h-.073c-.31.074-.568.251-.685.66l-.335 1.17-.73-.972c-.201-.268-.495-.42-.82-.367l-.013.003c-.372.053-.643.348-.588.815.113.688.681 1.284 1.359 1.727a5.24 5.24 0 00.989.505zM34.595 32.39c.643 3.436-.843 6.728-2.668 9.314-1.835 2.6-4.086 4.588-5.16 5.456l-.008.007-.972.727h-.201a.93.93 0 01-.268-.043 1.82 1.82 0 01-.183-.068 5.854 5.854 0 01-.298-.141c-1.284-.515-3.976-1.71-6.513-3.617-2.543-1.913-5.012-4.604-5.653-8.12v-.006c-.56-3.24 1.678-6.343 5.003-6.896h.005a5.907 5.907 0 015.44 1.977l.005-.012c.78-1.893 2.456-3.227 4.559-3.563l.525-.105.038-.002c3.02-.224 5.794 1.897 6.349 5.093zm-6.224-3.888c2.373-.157 4.585 1.514 5.032 4.1l.002.008c.556 2.959-.712 5.91-2.467 8.396-1.74 2.466-3.89 4.37-4.922 5.206l-.533.399-.128-.063-.022-.011-.024-.01c-1.229-.49-3.827-1.641-6.258-3.47-2.44-1.834-4.627-4.288-5.189-7.367-.44-2.555 1.327-5.046 4.008-5.493a4.698 4.698 0 014.352 1.596l.015.017.017.017c.304.304.463.465.625.707l.759 1.135.331-1.324c.092-.366.184-.643.28-.934.624-1.492 1.944-2.546 3.635-2.813l.012-.001.475-.095z" fill="#211087"/><path d="M27.889 62.88l34.254 5.396c1.201.2 2.303-.6 2.504-1.7L73.36 13.71c.2-1.2-.6-2.199-1.702-2.399L37.403 5.815c-1.201-.2-2.303.6-2.503 1.698l-8.714 52.868c-.2 1.199.5 2.298 1.703 2.498z" fill="#D6E2FF" stroke="#211087" stroke-width=".979"/><path fill-rule="evenodd" clip-rule="evenodd" d="M41.17 16.305l-3.629-.679 2.268-2.942 1.36 3.621z" fill="#211087"/><path fill-rule="evenodd" clip-rule="evenodd" d="M42.012 14.684a1.736 1.736 0 01-1.632.417 2.19 2.19 0 01-.9-.448 1.96 1.96 0 01-1.103.048c-.457-.114-1.035-.366-1.358-.85-.288-.431-.403-.96-.403-1.536v-.04l.006-.04c.071-.534.369-1.031.695-1.443a8.417 8.417 0 011.14-1.15 14.493 14.493 0 011.512-1.115l.027-.017.008-.005.002-.001s.002-.001.32.513l.469-.382.002.003.006.007.02.026.075.094a14.85 14.85 0 011.012 1.48c.268.449.536.964.719 1.48.178.501.3 1.075.193 1.609-.12.6-.379 1.045-.81 1.35zm-1.686-5.667l.469-.382-.336-.412-.451.28.318.514zm-.136.82c-.262.183-.604.436-.95.729a7.22 7.22 0 00-.975.977c-.26.329-.4.606-.438.817.005.399.089.656.198.819.077.114.3.262.645.348a.789.789 0 00.62-.116l.503-.335.335.502c.105.157.267.28.545.349.204.05.384.003.528-.141l.042-.042.05-.034c.14-.093.267-.238.343-.614.043-.216.003-.542-.148-.967a7.395 7.395 0 00-.617-1.265c-.24-.402-.489-.763-.681-1.028zM52.596 23.22l-.468.384-.324-.511.453-.288.34.415zm-3.692 19.352c.938.993 2.154 1.72 3.645 1.919 1.631.217 3.3-.105 4.649-1.115 1.317-.986 2.206-2.316 2.535-4.07l.002-.01c.276-1.597-.074-3.411-.698-5.184-.629-1.785-1.557-3.59-2.507-5.195a51.672 51.672 0 00-3.909-5.666l-.018-.022-.005-.006-.002-.003-.468.384-.324-.511-.003.001-.006.004-.025.016a50.13 50.13 0 00-1.684 1.15 53.262 53.262 0 00-3.837 3.004c-1.419 1.226-2.883 2.647-4.061 4.14-1.166 1.479-2.092 3.078-2.372 4.666-.432 1.853-.103 3.433.911 4.782.994 1.322 2.438 2.213 4.11 2.435 1.453.194 2.84-.042 4.067-.719zm3.093-18.16a51.996 51.996 0 00-4.957 3.77c-1.386 1.2-2.789 2.564-3.902 3.976-1.12 1.42-1.907 2.837-2.133 4.14l-.003.019-.004.017c-.362 1.538-.09 2.75.696 3.795.81 1.077 1.97 1.786 3.302 1.963 1.369.182 2.621-.091 3.692-.803l.456-.304.347.424c.824 1.004 1.895 1.706 3.217 1.882 1.374.183 2.71-.095 3.765-.884 1.085-.812 1.799-1.88 2.07-3.32.224-1.3-.052-2.882-.648-4.574-.592-1.682-1.479-3.412-2.407-4.98a50.497 50.497 0 00-3.49-5.12z" fill="#211087"/><path d="M78.984 68.6L67.773 57.39a1.83 1.83 0 01.57-2.975l2.031-.87a3.659 3.659 0 00-.051-6.744l-23.014-9.48a3.66 3.66 0 00-4.775 4.778l9.473 23.015a3.659 3.659 0 003.358 2.264h.026a3.659 3.659 0 003.363-2.217l.87-2.027a1.83 1.83 0 012.975-.57l11.21 11.21a3.659 3.659 0 005.175-5.174z" fill="#fff"/><path fill-rule="evenodd" clip-rule="evenodd" d="M59.624 63.134a1.83 1.83 0 012.975-.57l11.21 11.21a3.659 3.659 0 005.175-5.174L67.773 57.39a1.83 1.83 0 01.57-2.975l2.031-.87a3.659 3.659 0 00-.051-6.744l-23.014-9.48a3.66 3.66 0 00-4.775 4.778l9.473 23.015a3.659 3.659 0 003.358 2.264h.026a3.659 3.659 0 003.363-2.217l.87-2.027zm-4.233 3.025a2.44 2.44 0 002.242-1.478l.871-2.028a3.049 3.049 0 014.957-.952l11.203 11.203a2.44 2.44 0 003.45-3.45L66.91 58.252a3.05 3.05 0 01.951-4.957l2.03-.87a2.441 2.441 0 00-.034-4.497l-23.013-9.48a2.44 2.44 0 00-3.184 3.186l9.473 23.015a2.44 2.44 0 002.236 1.51h.021z" fill="#211087"/></svg>